<?xml version="1.0" standalone="no"?>
<!DOCTYPE svg PUBLIC "-//W3C//DTD SVG 1.1//EN" "http://www.w3.org/Graphics/SVG/1.1/DTD/svg11.dtd" >
<svg xmlns="http://www.w3.org/2000/svg">
<metadata></metadata>
<defs>
<font id="embossing_tape_1_brkregular" horiz-adv-x="1544" >
<font-face units-per-em="2048" ascent="1638" descent="-410" />
<missing-glyph horiz-adv-x="1024" />
<glyph horiz-adv-x="0" />
<glyph horiz-adv-x="682" />
<glyph unicode=" "  horiz-adv-x="1024" />
<glyph unicode="&#x09;" horiz-adv-x="1024" />
<glyph unicode="&#xa0;" horiz-adv-x="1024" />
<glyph unicode="$" horiz-adv-x="1212" d="M186 596h17q29 -68 78 -132.5t108 -109.5q12 -10 33.5 -19t43 -21.5t37 -29t15.5 -38.5q0 -4 -1 -19.5t-13 -15.5q-2 0 -13.5 5t-15.5 9q-49 31 -100 68t-93 83t-69 100t-27 120zM229 1204q0 10 1 40t1 40q-4 -59 22 -135t71 -144.5t105 -115.5t128 -47q0 12 -38 45 t-83 80t-83 103t-38 118q0 78 31 147.5t72 134.5q14 23 50 43.5t73 39t65.5 36t28.5 35.5q0 6 -1 17.5t-1 13.5q-2 2 -9.5 15t-14.5 27.5t-13 27t-6 16.5q-6 25 6 43t31.5 31.5t43 20.5t42.5 7q10 0 27.5 -2t35 -8t29.5 -14.5t12 -20.5v-186q0 -2 5 -7.5t9 -7.5l43 -14 q39 -14 94.5 -52t106.5 -88t85 -106.5t30 -109.5q-4 -45 -36 -81t-75 -36q-41 0 -83 8t-64 51q-2 55 -12.5 100.5t-35 79t-65.5 53t-102 25.5q-29 2 -56.5 -15t-42.5 -42q51 6 96.5 2t79 -22.5t53 -53t19.5 -90.5q-23 0 -39 14.5t-31.5 32t-33 31.5t-43.5 14q-18 0 -30.5 -9 t-23 -20.5t-21.5 -20.5t-26 -9q-29 0 -43 31q-16 -10 -23 -28.5t-7 -37.5q0 -68 42 -99.5t103.5 -50t135 -36t135 -55t103.5 -108.5t42 -196q0 -61 -8 -119.5t-37 -113.5q-8 -18 -15.5 -23.5t-13.5 -5.5t-13 -1t-15 -13q-12 -18 -20.5 -41t-20 -43t-28.5 -34.5t-48 -14.5 q0 2 1 9t1 9q2 2 8 13.5t6 15.5q0 10 -11 12t-18 2q-18 0 -27 -9t-16 -34q0 -4 7.5 -15t7.5 -13q2 -2 2 -23v-31q0 -63 -33 -105t-98 -56q-25 -6 -48.5 3t-42 27.5t-28.5 42t-10 43.5q0 23 7 39.5t15 31.5t15.5 30.5t7.5 33.5q0 6 -34 21.5t-78 37t-86 45t-60 46.5 q-23 27 -46.5 61.5t-42 73.5t-30.5 78t-12 74q0 16 11 31.5t27.5 27.5t35 19.5t34.5 7.5q61 0 93 -24.5t49.5 -61.5t30 -80t34 -80t60 -61.5t112.5 -24.5q80 0 134.5 54t54.5 134q0 37 -15.5 69t-42 55.5t-59.5 35.5t-70 12h-37q-18 0 -34 -16q18 -4 44.5 -12t51 -21.5 t42 -34t17.5 -47.5q0 -4 -5 -14t-9 -14h-6h-9q-4 4 -28.5 21.5t-28.5 21.5q-16 12 -26.5 15t-20.5 2t-25.5 -4t-40.5 -3v-57q-20 0 -32.5 9t-19.5 22.5t-14 28.5t-20 30q-6 6 -20 21.5t-30.5 31.5t-30 29.5t-19.5 17.5q-2 2 -17.5 7t-25.5 7q-51 14 -83 51t-48 84.5 t-22.5 100.5t-6.5 100zM619 811q2 -6 6 -6t8 6q2 6 -8 6q-8 0 -6 -6zM903 1112h15q14 0 42.5 -2t58.5 -8t51.5 -16.5t21.5 -24.5t-19.5 -24.5t-32.5 -10.5q-14 0 -34.5 9t-40 22.5t-37 28t-25.5 26.5z" />
<glyph unicode="%" horiz-adv-x="1671" d="M186 1401q0 4 1 21.5t1 21.5l58 -58q-6 76 9 147t53 124t99.5 85t145.5 32q82 0 143.5 -33t101.5 -87.5t59.5 -125t19.5 -146.5q0 -53 -34 -101t-84 -85t-108.5 -59.5t-105.5 -22.5q-55 0 -117.5 22.5t-117 60.5t-89.5 90.5t-35 113.5zM229 186q0 25 5.5 43.5t25.5 40.5 q2 2 12.5 10.5t22.5 17.5t23.5 18.5t13.5 11.5q176 166 323.5 358.5t290.5 384.5q129 174 257 339t245 349q16 10 37.5 19.5t42.5 9.5q31 0 46 -6t25.5 -17.5t20.5 -23.5t29 -25q0 -6 1 -25.5t1 -25.5q0 -51 -11.5 -89t-11.5 -95h-51l-13 -15q-12 -16 -28 -38.5t-32.5 -46 t-26.5 -38.5q-33 -49 -89.5 -131t-127 -182t-152.5 -211.5t-166 -220.5t-167 -208t-155.5 -174t-131 -120t-95.5 -45q-29 0 -57.5 9.5t-52 25.5t-39 41.5t-15.5 58.5zM279 1329q0 -14 10 -14t10 14t-10 14t-10 -14zM293 1315q0 -14 10 -15q10 0 10 15q0 14 -10 14t-10 -14z M516 1505q0 -27 10.5 -45t42.5 -18q31 0 48.5 22.5t17.5 51.5q0 25 -11.5 42t-39.5 17q-37 0 -52.5 -17.5t-15.5 -52.5zM709 414q0 -14 10 -15q10 0 10 15q0 14 -10 14t-10 -14zM889 631q0 -2 2 -2l20.5 20.5t20.5 22.5q2 0 2 6t-2 8q-4 -4 -20.5 -21.5t-20.5 -21.5 q-2 -2 -2 -8v-4zM932 356q0 8 10 22.5t19 20.5q2 14 8 48t18 69t31.5 61.5t50.5 26.5q0 -25 -10 -44t-22.5 -40.5t-22.5 -48.5t-10 -65q0 -31 14 -80.5t38.5 -97.5t57.5 -81.5t70 -33.5h6q-53 43 -91 109.5t-38 137.5q0 51 26.5 98.5t68.5 82t93 55t101 20.5q10 0 31.5 -1 t23.5 -1q2 -2 13.5 -10t24.5 -19.5t27.5 -23.5t20.5 -18q14 -14 36.5 -38t43 -47.5t35 -40t14.5 -18.5v-172q0 -35 -32 -63.5t-73.5 -51t-85 -37t-67.5 -20.5h-12h-23h-24h-13q-4 -2 -14 -14t-14 -14l-12 -1q-11 -1 -17 -1q-55 0 -94 25.5t-69 64.5t-52.5 84t-42.5 86 q-2 4 -13.5 21.5t-15.5 21.5t-9 15t-5 13zM946 715h15q2 0 9 8t16 19.5t17.5 22.5t14.5 19q2 2 2 9q0 6 -2 6q-43 -35 -72 -84zM1057 852q20 0 35.5 16.5t15.5 36.5q-18 0 -34.5 -16.5t-16.5 -36.5zM1233 70h29q0 2 -5.5 7t-9.5 7h-6h-8v-14zM1317 354q0 -35 19.5 -46 t52.5 -11q35 0 48 5t13 40q0 29 -15.5 57.5t-50.5 28.5q-33 0 -50 -24.5t-17 -49.5zM1319 1200h14v14zM1391 1286q10 8 17 20.5t11 22.5l-6 2q-2 0 -5 -1l-3 -1q-2 -2 -7 -13t-7 -16v-6v-8zM1495 1444q0 -14 10 -14t11 14q-1 14 -11 14t-10 -14z" />
<glyph unicode="+" horiz-adv-x="1615" d="M190 965q0 25 13.5 45t33 34.5t43 21.5t46.5 7q70 0 139.5 -13t140.5 -18q14 0 51 1t79 2.5t79 2.5t53 1q4 16 10.5 37.5t-8.5 31.5q-8 16 -19 39t-15 29q4 82 7 154.5t-22 146.5q-2 2 -6 13t-9 23.5t-9 24.5l-4 11q-2 0 -2 8q0 12 12 26.5t29.5 25.5t35 19.5t29.5 8.5 q18 0 39.5 -5.5t40 -16.5t31 -27.5t12.5 -38.5v-510q111 0 219.5 12t218.5 12q57 0 96 -21.5t39 -86.5q0 -39 -15 -60.5t-34.5 -35t-35 -24.5t-15.5 -30q-59 -33 -111.5 -45t-104.5 -14t-110.5 2t-132.5 4v-219q4 -4 9.5 -21.5t5.5 -21.5q0 -37 -3.5 -80t-17.5 -80 t-42 -61.5t-77 -24.5q-41 0 -65 19.5t-51 54.5q-2 6 -2 32v31q0 10 -1.5 30.5t1 42t8.5 40t22 24.5q0 49 6.5 93.5t12.5 86.5l12 84t6 89q-4 0 -18.5 3t-18.5 3q-8 -2 -29.5 -10.5t-27.5 -12.5h-358q-18 0 -24.5 -4t-6.5 -12q0 -6 4 -13.5t4 -13.5h309l29 -20v-230l-14 -14 q-29 14 -39.5 34.5t-13.5 45.5t0 49.5t3 46.5q-43 0 -77.5 4t-68.5 10.5t-73 16.5t-90 22q-45 8 -74.5 17.5t-48 29t-27 50t-8.5 82.5zM1020 844q0 -16 1 -30.5t13 -27.5l58 35h358v43h-330q-18 16 -30.5 19.5t-32.5 3.5q-25 0 -31 -10t-6 -33z" />
<glyph unicode="," horiz-adv-x="733" d="M154 252q0 20 3 49t25 37q20 -23 24.5 -58.5t4.5 -64.5q0 -12 -10.5 -16t-20.5 -4q-23 0 -24.5 20.5t-1.5 36.5zM166 10q0 31 21.5 53.5t52 38t62.5 27.5t52 25q0 2 1 9t1 11q0 20 -12 32.5t-25.5 23t-25.5 24.5t-12 41q0 43 22.5 75.5t57 54t75.5 33t80 11.5 q45 0 82 -17.5t62.5 -46t39 -66.5t13.5 -81q0 -29 -5.5 -63.5t-25.5 -55.5l-158 -155q-31 -10 -58.5 -27.5t-55 -34t-56 -29t-61.5 -12.5q-25 0 -47.5 11.5t-40 30t-28.5 41.5t-11 46z" />
<glyph unicode="-" d="M188 938q0 31 9.5 51.5t35.5 40.5q43 0 132.5 1t203 3t237.5 3t237.5 3t202.5 3t132 1h60q53 0 68.5 -16t15.5 -78q0 -16 -19.5 -40.5t-23.5 -45.5h-1073q-33 -27 -55.5 -32t-57.5 -5q-57 0 -81 26t-24 85zM334 772q0 14 14 14q6 2 19.5 4.5t30 4.5t30.5 4t21 2 q25 0 78 1t118.5 3t139 3t139 3t119 3t77.5 1h58q29 0 49 -1t40.5 -2t46 -4t64.5 -7q-25 -29 -59.5 -34t-69.5 -9q-4 0 -25.5 -1t-49 -3t-54 -5.5t-43.5 -5.5h-6h-8q-16 0 -65.5 1t-116 3.5t-140 3.5t-140 3t-116 3t-65.5 1q-23 0 -45.5 -1t-40.5 15z" />
<glyph unicode="." horiz-adv-x="702" d="M164 233q0 4 1 11.5t1 11.5l14 -14q47 -74 113.5 -124t159.5 -50q8 0 23.5 1t17.5 1l14 14q-43 10 -93 21.5t-93 34t-72 59.5t-29 96q0 111 66.5 165t171.5 54q41 0 81 -11t71.5 -35t51 -58.5t19.5 -79.5q0 -37 -3 -63.5t-13 -67.5q-14 -16 -35 -38t-44.5 -43.5t-47 -42 t-45.5 -34.5h-15q-10 0 -22.5 -1t-24.5 -1h-16q-41 0 -85 12t-81 37t-61.5 61.5t-24.5 83.5z" />
<glyph unicode="0" horiz-adv-x="1427" d="M186 510q0 6 1 25.5t1 25.5q35 -59 55.5 -120.5t59.5 -123.5q18 -31 59 -74.5t90.5 -84.5t97.5 -70t83 -29q14 0 14 15q-72 41 -138.5 90t-119.5 110.5t-85 135t-32 163.5v72q0 35 17 72v172q0 92 -7.5 177t-7.5 177q0 76 31 149.5t81 137t114.5 113t132.5 77.5 q20 8 50 11.5t60.5 4.5t58 0t44.5 -1h143q86 -8 158 -56.5t126 -119t88 -153.5t44 -159v-51q0 -37 1 -78t1 -78v-51q0 -74 4 -161t1 -175t-19.5 -171t-59.5 -150q-10 -16 -32.5 -37t-45 -40t-42 -36.5t-23.5 -30.5q-2 -4 0 -21t0 -22q-2 -6 -36 -16t-75 -22.5t-79.5 -24.5 t-53.5 -23q-2 -2 -6 -14t-8 -14q-23 -12 -63 -14.5t-74 -2.5h-35h-23q-14 0 -27.5 1t-23.5 1h-10q-84 10 -171 54.5t-158 112t-116 151.5t-45 176zM489 846q0 -18 1.5 -65.5t3.5 -99.5t5 -98.5t5 -64.5q59 -111 140 -171t210 -60q61 0 121.5 22.5t107.5 62.5t77 96t30 122 v672q0 47 -23.5 93t-62.5 83t-86 59.5t-92 22.5h-23q31 -12 63.5 -33t59.5 -46.5t44 -57t17 -64.5h-26q-25 23 -50.5 46.5t-53 41.5t-58.5 29.5t-65 11.5q-74 0 -118 -14.5t-75 -42t-54.5 -67.5t-54.5 -91l-14 29l-3 1t-5 1l-6 -2q-2 -4 -5 -16.5t-5 -26t-3.5 -25.5 t-1.5 -18t2.5 -30t5.5 -49.5t5 -49t2 -29.5t-2 -30.5t-5 -54.5t-5.5 -55.5t-2.5 -31.5zM526 709q0 24 6 22q6 -4 7 -20q0 -16 -7 -23q-4 -2 -5 5t-1 16zM590 1434l6 -2q2 0 4 1t4 1q2 2 7 6t7 8h-8h-6q-4 -2 -9 -7t-5 -7zM637 1462q0 -14 10 -14t10 14q0 15 -10 15t-10 -15z M1075 1163q0 18 4 30.5t27 12.5q16 0 29.5 -13t13.5 -32q0 -23 -10.5 -38t-26.5 -33v-244q-2 33 -8 72.5t-12.5 81.5t-11.5 84t-5 79zM1090 762q0 10 2 16t12 10q10 -10 13 -19t3 -24q0 -10 -2 -17t-14 -11q-10 12 -12 21.5t-2 23.5z" />
<glyph unicode="1" horiz-adv-x="751" d="M201 1210v144q0 31 25.5 54.5t59 41.5t67.5 32.5t48 26.5q27 25 48.5 59t44 66.5t51 55t67.5 22.5q37 0 63.5 -22.5t26.5 -61.5q0 -55 -8 -107.5t-8 -111.5q0 -256 5 -507t9 -507q2 -72 16.5 -132t14.5 -126q0 -31 -14.5 -52.5t-36 -34.5t-48 -20t-50.5 -7q-20 0 -45 5 t-45.5 17t-35 30.5t-14.5 47.5v8q0 6 2 8q2 14 9.5 55.5t16.5 87.5t17.5 86t12.5 56q2 31 4 93.5t3 141t3 165.5t3 166t1 140v95q0 4 1 25.5t1 31.5q0 6 -1 27.5t-1 29.5q-2 -4 -13.5 -15t-15.5 -13q-27 -20 -38 -61.5t-17 -83.5t-11 -75.5t-18 -37.5q-10 31 -42.5 50 t-67.5 34.5t-62.5 32t-27.5 40.5z" />
<glyph unicode="2" horiz-adv-x="1423" d="M213 143q0 37 12.5 72t31.5 67.5t42 62.5t43 58q2 2 11 14.5t18.5 28t17.5 27.5t10 16q76 86 165 143.5t181.5 106.5t180.5 99.5t159 122.5q49 49 70 113.5t21 129.5q0 43 -16.5 97.5t-46.5 101.5t-73 80t-94 33q0 -20 26.5 -41t58.5 -49.5t58.5 -68.5t26.5 -102 q0 -12 1 -31.5t-1 -38t-9 -33.5t-22 -19q-10 12 -15 34.5t-7 45t-3 41t-3 22.5q-12 39 -40 70.5t-65 54t-79 35t-80 12.5q-31 0 -67 -12.5t-69.5 -32t-60.5 -46t-39 -52.5q-14 4 -14 14v6v8q2 12 7 34t7 24l129 129h-8q-59 0 -93 -35t-51.5 -84t-20.5 -103.5t1 -93.5 l-72 -71q6 -12 -4 -22.5t-25.5 -18t-33 -12.5t-23.5 -5q-23 0 -48 11.5t-38 31.5l29 15l-72 43l-14 14q-8 115 44 217t139 178t195.5 120t215.5 44q119 0 222.5 -41t180 -114.5t120.5 -176t44 -223.5q0 -117 -34.5 -202t-93 -149.5t-134.5 -114.5t-159 -95t-167 -93 t-157 -108q-4 -4 -16.5 -15t-29 -24.5t-31.5 -27t-24 -19.5q-12 -10 -14 -14t-1 -9.5t4 -15.5t3 -33h694q25 8 42.5 11.5t39.5 3.5q23 0 42.5 -12.5t32.5 -32t21.5 -42t8.5 -42.5q0 -59 -39 -86t-92 -40.5t-109.5 -20.5t-89.5 -23h-629q-25 0 -63.5 13t-75.5 34.5t-63.5 49 t-26.5 56.5zM664 367q0 25 10 38t24.5 23t31 20.5t28.5 26.5q18 10 67 38t104.5 59.5t103.5 60.5t67 41q45 27 78.5 52.5t63.5 54t56.5 61t59.5 76.5h16q0 -41 -42 -98.5t-108.5 -119t-148.5 -121t-160.5 -106.5t-146.5 -76.5t-104 -29.5zM744 1534q4 -6 14 -6t14 6 q2 6 -16 6q-16 0 -12 -6z" />
<glyph unicode="3" horiz-adv-x="1341" d="M188 344v14q20 -2 57.5 -49t90.5 -102t121.5 -100.5t152.5 -45.5q0 2 -29.5 18.5t-72.5 44.5t-95.5 65.5t-95.5 81.5t-72.5 93.5t-29.5 100.5q0 6 1 25.5t1 25.5q18 31 54 38t69 7q43 0 70.5 -21.5t49 -54t43 -69.5t54.5 -70t83 -54.5t128 -21.5q57 0 114.5 15.5 t103.5 46t76 77t30 109.5q0 51 -20.5 95t-54.5 77t-78 51.5t-93 18.5h-35q-31 0 -37 -2q6 -14 45 -23.5t84 -28t81 -52t36 -97.5v-25q0 -12 -16 -16q-25 18 -35.5 43t-36.5 41q-6 6 -22.5 16.5t-35 21.5t-35 20.5t-22.5 13.5q-35 18 -79 24t-84 17.5t-67.5 39t-27.5 89.5 q0 18 7 45.5t19.5 53.5t32 43t44.5 17h227q27 0 61.5 25t65.5 57.5t52.5 66.5t21.5 52v158q0 25 -27 51.5t-61.5 47t-70.5 33.5t-57 13q-4 0 -14 -1t-14 -1q29 -18 59.5 -34.5t56 -37t42 -48t16.5 -66.5v-35q0 -23 -23 -22q-6 0 -27.5 22.5t-52 49t-71.5 49t-86 22.5 q-27 0 -65 -7t-75.5 -20.5t-69.5 -32t-46 -40.5q-10 -16 -19.5 -37t-18.5 -42.5t-21.5 -39t-26.5 -25.5q-6 0 -28.5 -1t-29.5 -1q-98 0 -127.5 49t-29.5 142q0 41 21.5 69.5t49.5 57.5q53 57 109.5 105t118 82t131 52.5t149.5 18.5q100 0 195.5 -35t168.5 -98.5t117 -150.5 t44 -194q0 -43 -9.5 -74.5t-20.5 -60t-20.5 -54.5t-9.5 -56v-9q8 8 16.5 20.5t16.5 25t18.5 21.5t24.5 9q0 -18 -10 -44.5t-26.5 -53.5t-36 -45.5t-38.5 -18.5q-8 0 -11 5.5t-5 10.5t-6 10t-12 5q-10 0 -24.5 -3t-30 -8t-26 -13.5t-10.5 -20.5q0 -2 1.5 -7t1.5 -7 q55 -47 95 -90t67.5 -91.5t41 -103.5t13.5 -125q0 -53 -22.5 -104t-58.5 -97.5t-79 -84t-86 -62.5q-16 -10 -36.5 -16.5t-40 -12.5t-38 -15t-28.5 -28l28 -28q-53 -29 -119 -29h-125q-74 0 -134 13.5t-112.5 40t-100.5 67.5t-95 94q-4 6 -16.5 21.5t-24.5 34t-21.5 38 t-9.5 35.5zM489 1346l15 -15q41 49 87 87t85 85h-23q-45 0 -79.5 -32.5t-55.5 -67.5q-8 -12 -19.5 -34.5t-9.5 -22.5zM774 1518q2 -8 14 -9q13 1 15 9q2 2 -3 4t-12 2q-6 0 -11 -2t-3 -4zM1004 57q8 14 34.5 36t58 45.5t61.5 44t46 32.5q2 2 7.5 3t7.5 1v-33q0 -2 -13.5 -15 t-32 -31.5t-38 -37t-31.5 -30.5q-16 -14 -30.5 -15.5t-33.5 -1.5q-4 0 -18 1t-18 1z" />
<glyph unicode="4" horiz-adv-x="1398" d="M188 600v6q0 2 32 37t72 79t77 87t49 61q47 86 103.5 164t115.5 154t116.5 152.5t106.5 160.5q25 39 37 78t28.5 69.5t45 49t84.5 18.5q8 0 21.5 -3t25.5 -8t21.5 -13.5t9.5 -18.5v-874q0 -2 -5.5 -23.5t-9.5 -34.5q0 -4 -6 -21.5t-8 -21.5v-6q0 -16 13 -26.5t30 -10.5 q29 0 51.5 15.5t50.5 15.5q23 0 32 -21.5t17.5 -52t20.5 -62.5t43 -50l14 -15q-12 -20 -29.5 -40.5t-40 -38t-46 -27.5t-48.5 -10q-14 0 -18 10t-4 20q0 16 8 21.5t8 21.5q0 12 -2 15.5t-14 13.5q-10 6 -25.5 17.5t-17.5 11.5l-14 -15v-41q0 -53 3 -120.5t11 -110.5 q0 -4 4 -16.5t10 -26.5t10.5 -27.5t4.5 -15.5q0 -31 -17.5 -52.5t-43 -35.5t-54.5 -21.5t-49 -7.5q-51 0 -94.5 29t-43.5 88v14q0 2 4.5 15.5t10.5 28t10 26.5t4 16q2 6 6 33t9.5 59.5t9.5 60.5t4 34q2 2 8 13t6 15q4 8 9.5 24.5t5.5 18.5q0 18 -7.5 23.5t-19.5 5.5 q-6 0 -22.5 -4t-35 -11t-32 -16.5t-13.5 -19.5q0 -20 8.5 -36.5t8.5 -41.5q0 -29 -2 -50.5t-15 -49.5q-4 8 -20 35.5t-20 35.5q-4 4 -40 9.5t-88.5 11.5t-117 15t-125 20.5t-111.5 26t-78 32.5q-2 6 -8 24.5t-13 39t-13.5 39t-8.5 26.5zM389 471q31 -14 55.5 -15t57.5 -1 q51 0 89 3t99 13l-28 14h-259zM530 698q0 -10 2.5 -17t14.5 -11q14 0 51 1t78 1t76.5 -1t50.5 -1q6 0 29.5 -7.5t27.5 -7.5h41q27 0 44.5 10.5t17.5 41.5q0 18 -7.5 35.5t-15.5 34t-15 33.5t-7 38q0 86 16 165t16 158h-18q-2 -6 -8 -20t-13.5 -29.5t-13.5 -30t-8 -20.5 q-2 -4 -6 -14t-9 -15l-43 -229q0 -14 -14 -14q-4 0 -27.5 7t-27.5 7q-2 0 -4 1t-4 1t-4 -1l-2 -1q-4 0 -21.5 -7t-21.5 -7q-2 0 -7.5 5t-7.5 9q-2 0 -2 8q0 49 30 93t66.5 89.5t66.5 90.5t30 98q-16 0 -30.5 -20.5t-26 -46t-20.5 -50t-13 -33.5q-49 -92 -119 -173t-140 -156 q0 -2 -1 -7.5t-1 -7.5z" />
<glyph unicode="5" horiz-adv-x="1413" d="M188 389q0 23 13.5 44.5t34 36.5t44 24.5t44.5 9.5q39 0 61.5 -9.5t40.5 -24.5t37.5 -36.5t54.5 -44.5q59 -43 136 -72.5t149 -29.5q78 0 142.5 26.5t109.5 72.5t69.5 109.5t24.5 139.5q0 53 -17.5 108.5t-51 99.5t-81 71.5t-106.5 27.5q0 -14 28.5 -33.5t63.5 -50.5 t63.5 -76t28.5 -106q0 -33 -1 -59.5t-15 -55.5q-10 92 -35 151.5t-69 92.5t-108.5 45t-152.5 12q-47 0 -89 -11t-82 -25.5t-81 -26t-86 -11.5q-51 0 -81.5 8.5t-47 29t-21.5 53t-5 82.5q0 35 12 65.5t16 63.5q0 4 1 33.5t3.5 68.5t5.5 78t5 63v15q0 92 -15.5 176t-15.5 170 q0 29 28.5 56.5t59.5 27.5h1002q25 0 42 -11.5t27 -29t14.5 -39t4.5 -39.5q0 -80 -26 -114t-64.5 -47t-85 -21.5t-84.5 -36.5h-543q-16 0 -25.5 -12.5t-15.5 -28t-12.5 -30.5t-18.5 -21q-10 49 -14 99t0 101l-29 15q-2 0 -7 -1t-7 -1v-410q37 0 69.5 6t64.5 14.5t65.5 14.5 t70.5 6q102 0 197.5 -25.5t176.5 -77t143.5 -127t99.5 -174.5q4 -8 9 -35.5t5 -35.5q0 -16 -1 -56t-3 -86.5t-5 -87.5t-5 -55q-4 -6 -11.5 -18.5t-16.5 -25.5t-17.5 -25.5t-12.5 -16.5q-8 -12 -24.5 -30.5t-34 -39t-29.5 -38t-12 -29.5v-6l57 28q2 0 9.5 1t9.5 1 q0 -20 -22.5 -45.5t-53.5 -48t-62.5 -38t-52.5 -15.5q-4 0 -14 1t-14 1q16 18 33.5 25.5t17.5 29.5q-25 0 -51.5 -16t-42.5 -39q4 -2 9 -7t5 -7l1 -3t1 -5q0 -14 -32 -25.5t-74 -21t-85 -14.5t-63 -5q-86 0 -161 18.5t-140.5 50t-126 77t-121.5 100.5q-10 8 -15 27.5 t-8.5 41t-4.5 42t-1 32.5zM301 238q0 -10 36 -35t81 -50.5t88 -46t55 -20.5q10 0 17.5 2t11.5 14l-201 101q-6 12 -27.5 22.5t-39 15.5t-19.5 5q0 -2 -1 -4t-1 -4zM457 887q23 0 55.5 11t48.5 34q-2 2 -18 2h-19q-23 0 -45 -9.5t-22 -37.5zM1137 174q0 -14 10 -14t10 14 t-10 14t-10 -14z" />
<glyph unicode="6" horiz-adv-x="1480" d="M213 815q0 59 1 110.5t2 103.5t4 108.5t7 124.5h15q18 -135 22 -286t4 -294v-92t2 -86q45 -74 71 -128t55.5 -99.5t74.5 -86t129 -88.5q20 -12 24.5 -14t24.5 -2q4 0 11.5 1t11.5 1q-10 16 -23.5 24.5t-29 14.5t-32 12t-30.5 21q-98 78 -163.5 177t-65.5 228 q0 94 14 187.5t14 187.5q0 66 -8 132.5t-8 133.5q0 123 43 223.5t120 171t180 109.5t224 39q61 0 149.5 -22.5t168.5 -64.5t137 -101.5t57 -133.5q0 -29 -5 -56.5t-42 -37.5l14 -14v-8v-6q-27 -45 -56.5 -53.5t-69.5 -8.5q-39 0 -69 14.5t-57.5 33t-56 39t-63.5 32.5h-17 q-12 0 -25.5 1t-25.5 1h-18q-96 0 -171 -23.5t-128 -107.5q-2 8 -3 32.5t-1 30.5q0 29 7 48.5t16 34t16.5 28.5t7.5 33v8q-35 -29 -61.5 -70t-45 -88t-29 -95t-10.5 -91v-29q0 -25 2 -28q4 -10 11.5 -12.5t17.5 -2.5h14q72 66 146 106t172 40q8 0 23 -1l16 -1 q12 -2 42.5 -10.5t65.5 -17.5t64.5 -17.5t42.5 -12.5q82 -68 131 -103.5t80.5 -76.5t50 -101.5t39.5 -177.5q0 -2 7 -13t7 -13v-29q0 -59 -12 -116.5t-31 -112.5q0 -4 -5 -14.5t-9 -14.5q-18 -33 -19.5 -68.5t-23.5 -60.5q-18 -20 -38 -46t-43.5 -47.5t-49 -36.5t-56.5 -15 q-4 0 -14 1t-14 1l71 71q-72 -18 -129 -71q4 -2 9.5 -7.5t5.5 -7.5l1 -3t1 -5q0 -10 -34 -19t-77 -16.5t-82 -11.5t-47 -4q-123 0 -216 28.5t-166.5 86t-131 140t-106.5 191.5q6 35 2 81t-10.5 96.5t-13.5 99.5t-7 92zM541 719q0 -84 17 -164t58 -142.5t108 -101.5t165 -39 q68 0 132 26t114.5 70t80 104t29.5 130q0 47 -15.5 103.5t-45 105.5t-74.5 82t-102 33q0 -16 25.5 -35t57 -45.5t57.5 -64.5t26 -93q0 -35 -4.5 -72.5t-26.5 -68.5q-8 131 -76 216t-211 85q-49 0 -88 -24.5t-69.5 -55.5t-51 -55.5t-33.5 -24.5q-16 0 -24 9.5t-9 21.5t1 27.5 t4 27.5q-23 -4 -34 -19.5t-11 -35.5zM606 602q0 18 8 16q6 -4 7 -14q0 -12 -7 -14q-8 -2 -8 12zM672 860l28 29q-2 2 -8 2t-6 -2q-4 -2 -9 -13.5t-5 -15.5zM729 903q2 -6 6 -6t8 6q2 6 -8 6q-8 0 -6 -6zM1012 1513q0 -18 16 -36.5t37.5 -34t43 -29.5t34.5 -22q0 2 1 7t1 7 q0 23 -13.5 42t-34 34.5t-44 23.5t-41.5 8zM1233 160q0 -14 10 -15q10 0 10 15q0 14 -10 14t-10 -14zM1315 217l14 14h-14v-14zM1352 266q0 -8 6 -6t6 6t-6 8q-6 2 -6 -8z" />
<glyph unicode="7" horiz-adv-x="1425" d="M199 1559q0 33 9 63.5t27.5 55t46 39t62.5 14.5q246 0 485.5 -9.5t487.5 -5.5q33 -4 50 -18.5t25.5 -36t10.5 -47t2 -49.5q0 -33 -17.5 -75t-43 -84t-56.5 -78t-57 -56v14q0 27 14.5 57.5t33.5 60.5t41.5 55.5t39.5 41.5q-2 0 -7 1t-7 1q-16 0 -23.5 -7t-19.5 -23 q-33 -45 -53.5 -82t-35 -72t-26.5 -74t-29 -88q-4 -10 -9 -12t-11 -3t-12.5 -3t-10.5 -11q-20 -41 -38.5 -87t-18.5 -93q0 -23 8 -31t8 -32q0 -8 -7 -27.5t-17.5 -39t-23.5 -31t-26 -3.5q-31 -59 -43 -131.5t-14 -138.5v-444q-16 -47 -49 -53.5t-76 -6.5q-82 0 -107.5 46 t-25.5 120q0 16 13.5 48t17.5 46q14 98 15 192.5t13 192.5q8 72 31 159t51.5 176t63.5 173t67 152q12 27 34 49t43.5 44t38 46.5t16.5 54.5l-3 7q0 2 -5 7t-9 7h-6q-35 0 -56.5 -12.5t-37 -31t-28.5 -42t-30 -43.5q-6 -10 -18 -25.5t-23.5 -29t-20.5 -22.5l-9 -9h-6 q0 12 -9.5 33.5t-25.5 23.5l-430 29q-27 14 -57.5 26.5t-56.5 29t-43 41t-17 61.5zM602 385q4 92 9 196.5t34 202.5q2 10 6 24.5t9.5 29t9.5 23.5l4 9h16q0 -6 -1 -27.5t-1 -29.5q0 -2 -2 -12t-5 -22.5t-5 -24t-2 -13.5q-4 -23 -10.5 -79t-12.5 -120.5t-12 -120.5t-8 -79 q-10 6 -17.5 18.5t-11.5 24.5zM1006 856q0 -14 10 -14t10 14t-10 14t-10 -14z" />
<glyph unicode="8" horiz-adv-x="1470" d="M188 1333q0 8 22 19l21 10h9q18 0 20 -15.5t2 -27.5t-2 -27.5t-22 -15.5q-12 0 -31 21.5t-19 35.5zM227 504h19q6 -25 28.5 -77t53 -106.5t63.5 -94.5t62 -40q2 0 4 1t4 1q-25 37 -50.5 74t-46 77t-34 81t-13.5 88q0 80 14.5 164t71.5 145q2 2 14.5 11.5t27 18.5t27.5 17 t17 10l43 44q-27 35 -62.5 46t-66.5 40q-61 61 -74.5 133.5t-13.5 152.5q0 141 64.5 260t195.5 185q31 16 65 20t65 23h342q4 0 24.5 -7.5t45 -16.5t49 -18.5t38.5 -15.5q55 -27 90 -63.5t59.5 -80.5t46 -91t48.5 -94v-21q0 -14 1 -29.5t1 -29.5v-21q0 -72 -11.5 -130 t-19.5 -128l-14 15q0 -4 2 -22.5t2 -39.5q0 -20 -7 -37.5t-26 -17.5q-10 0 -17 5t-13.5 11t-13.5 11.5t-19 5.5q-16 0 -33.5 -8.5t-17.5 -28.5v-8q43 -35 79.5 -78t63.5 -95q0 -29 4 -64.5t10 -73.5t10.5 -75.5t4.5 -70.5v-15q0 -6 -2 -20t-5.5 -30.5t-5.5 -30t-2 -19.5 q-23 12 -36 -13.5t-23 -62.5t-22.5 -68.5t-32.5 -31.5v33q-27 4 -36 -3t-9 -24q0 -10 3 -18t13 -13q-45 -53 -99.5 -79.5t-113.5 -38t-124 -12.5t-128 -1h-33q-23 0 -49.5 1t-50.5 1h-31q-86 14 -161.5 58.5t-133 109t-91.5 146.5t-34 174zM229 1184q0 10 1 20t16 15l24 -41 q23 -41 49.5 -92.5t48 -94.5t21.5 -45t-11 -13t-18 -15h-8q-23 0 -45 35.5t-39.5 81.5t-28 89.5t-10.5 59.5zM494 145q0 -14 10 -14t10 14q0 15 -10 15t-10 -15zM547 539q0 -78 31.5 -124t81 -72t110.5 -34t121 -8q53 0 113.5 9t111.5 35t85 70t34 115q0 39 -11.5 86.5 t-35 89.5t-58 70.5t-83.5 28.5v-31q41 -31 78.5 -74t37.5 -96q0 -29 -10 -57.5t-35 -42.5q0 25 -7 54.5t-21.5 56t-36 47t-49.5 26.5q-10 0 -34 2t-46 2h-21q-98 0 -167.5 -29.5t-131.5 -101.5q-6 10 -18.5 28.5t-24.5 28.5q-4 -10 -8 -36.5t-6 -34.5v-8zM554 1285 q-1 -44 6 -83t26.5 -73.5t60.5 -67.5q6 -6 15.5 -13.5t18.5 -13.5t17 -11l7 -5h370q33 0 61.5 33.5t50 80t35 93.5t13.5 73q0 39 -15.5 83t-42 82t-64.5 63.5t-81 25.5v-18q57 -41 87 -79t30 -101q0 -10 -1 -20.5t-15 -14.5q-23 47 -65 88t-97 41h-25q-12 0 -42 -2t-64.5 -5 t-64.5 -5t-42 -2q-43 -10 -71.5 -43t-43.5 -72q-12 6 -17 17.5t-10 20.5t-13.5 16t-22.5 7q0 -51 -1 -95zM575 659h7q14 0 19 12.5t5 22.5q-14 0 -21 -10t-10 -25zM586 1434h18q18 27 35.5 51t50.5 35l-14 14l-7 -4q-7 -4 -16.5 -11.5t-18.5 -14.5t-16 -13q-4 -4 -14 -20.5 t-14 -22.5q-2 -2 -3 -7t-1 -7zM614 713q6 0 22.5 9t32 22.5t28 27t12.5 21.5q-12 0 -28.5 -7.5t-31 -18.5t-25 -25.5t-10.5 -28.5zM889 74q2 -6 6 -6t8 6q2 6 -8 6q-8 0 -6 -6zM1047 59l14 -14h8h6q4 2 9.5 7t5.5 7q0 14 -15 15q-4 0 -14 -5.5t-14 -9.5zM1133 88q2 -6 6 -6 t8 6q2 6 -8 6q-8 0 -6 -6z" />
<glyph unicode="9" horiz-adv-x="1443" d="M188 1184h17q12 -49 43 -131t76 -161t100 -137.5t117 -58.5h8q-4 6 -21.5 22.5t-21.5 20.5q-104 92 -161.5 197.5t-57.5 247.5v22q0 23 2 52.5t2 39.5l14 29q33 88 82 167t115.5 137.5t150.5 92t189 33.5q129 0 236.5 -40t183 -113.5t117.5 -180t42 -239.5q0 -8 -2 -39 t-5 -68t-5 -68.5t-2 -39.5q0 -29 -1 -102.5t-1 -155.5t1 -155t1 -101q-10 -35 -23.5 -65t-19.5 -64h-29q0 -14 -4 -33t-13 -36t-22.5 -30.5t-31.5 -15.5l14 -14q-16 -18 -37.5 -41t-46.5 -43.5t-51.5 -37t-50.5 -22.5q-4 0 -29 7.5t-29 7.5q-2 0 -7 -1t-7 -1v-27 q0 -2 -21.5 -7t-35.5 -7q-4 0 -22.5 -2.5t-41 -5.5t-45.5 -5t-35 -2h-12q-150 0 -256.5 45t-202.5 156q-4 4 -14 20.5t-15 22.5q-2 2 -3 7t-1 7h19q6 -6 19.5 -18t29.5 -25.5t32.5 -25t33.5 -17.5h6h8l-129 129l-29 -14v20q0 39 4 75t19.5 62.5t44 42t76.5 15.5 q49 0 84.5 -34t78.5 -75t100.5 -77.5t149.5 -42.5q82 -6 148.5 28.5t113.5 94t73 132t26 144.5q0 8 -1 29.5t-1 27.5q-4 14 -15 15q0 2 -4 2h-2q-25 0 -37 -17.5t-17 -42t-7 -48t-4 -36.5q0 -4 -5.5 -14t-9.5 -14q-4 -6 -11 -18.5t-16.5 -26t-17.5 -25.5t-12 -16 q-2 -2 -8 -2h-6q-12 0 -17.5 7t-10.5 15t-12.5 15.5t-23.5 7.5q-31 0 -60.5 -8.5t-62.5 -8.5q-72 0 -156.5 11.5t-156.5 33.5q-29 8 -55.5 26.5t-50 41t-44 46.5t-37.5 42q-88 98 -131 214t-43 245zM492 153.5q2 -6.5 6 -6.5q4 1 8 7q2 6 -8 6q-8 0 -6 -6.5zM510 139 q0 -14 10 -14t10 14q0 15 -10 15t-10 -15zM520 1112q31 -53 60.5 -101t66.5 -83t86 -55.5t121 -20.5q125 0 214 50t167 138q0 4 1 18.5t1 18.5q0 6 -1 19.5t-1 15.5t-4 12.5t-10.5 22.5t-10.5 22.5t-4 14.5q0 6 -2 26.5t-4 45t-4 45t-4 26.5q-6 33 -30.5 70t-58.5 69.5 t-73 54t-74 21.5h-8l-28 -14q55 -8 96 -39t66.5 -73t39 -92t13.5 -97q0 -6 -1 -20.5t-3.5 -30t-5.5 -29.5t-5 -21l-6 -2q-10 0 -15 21.5t-13.5 53.5t-23.5 70t-44 69.5t-75 53t-116 21.5h-77q-39 -12 -70 -39.5t-55.5 -61.5t-42 -72t-27.5 -71v144q-10 -4 -22.5 -17.5 t-12.5 -25.5v-158zM535 125q2 -6 6 -6t8 6q2 6 -8 6q-8 0 -6 -6zM563 682l15 -14v14h-15zM578 96q12 -10 20 -12t23 -2h14q0 20 -8.5 25.5t-20.5 5.5q-10 0 -17 -3.5t-11 -13.5zM621 653q2 -6 6 -6t8 6q2 8 -8 9q-8 0 -6 -9zM1077 96q2 -6 6 -6q5 0 9 6q2 6 -9 6q-8 0 -6 -6 zM1221 182q2 -6 6 -6t8 6q2 6 -8 6q-8 0 -6 -6z" />
<glyph unicode="A" horiz-adv-x="1601" d="M176 156q0 63 24.5 123.5t57.5 119t66.5 115.5t52.5 117q76 227 156.5 435t187.5 423q2 4 8 18.5t13.5 31.5t13.5 31.5t8 18.5q2 8 9 29.5t16.5 43t21.5 39t25 17.5h98l29 -28q4 -78 27.5 -149t55 -138.5t67.5 -135t65 -137.5q55 -131 86.5 -261t56.5 -267 q6 -33 27.5 -73t50 -81.5t61.5 -87t59.5 -87.5t44 -81.5t17.5 -72.5q0 -59 -46 -83t-95 -24q-53 0 -85 20.5t-52.5 51.5t-33 65.5t-27.5 65.5t-35.5 51.5t-57.5 20.5h-485q-12 -10 -31 -22.5t-38.5 -25t-37.5 -20.5t-33 -8q0 37 8.5 59.5t18.5 39t18.5 28.5t8.5 27v8 q-23 14 -37.5 21t-34.5 7q-18 0 -24.5 -9t-6.5 -25q0 -18 8.5 -30.5t8.5 -29.5q0 -47 -21.5 -92t-21.5 -94v-21q2 14 9 24.5t23 10.5q0 -31 -16 -51.5t-42 -32.5t-55.5 -18t-56.5 -6q-53 0 -94 37.5t-41 91.5zM547 608q0 -2 1 -4l1 -2q2 -4 7 -9t7 -5h457q6 -2 18.5 -4 t25.5 -4t25.5 -4.5t16.5 -2.5q2 0 8 -1t8 -1q16 0 29.5 10.5t13.5 26.5q0 25 -19.5 56.5t-43 66.5t-46 72t-28.5 69v-57q-25 8 -35 31.5t-18 49.5t-23.5 45.5t-52.5 19.5q-41 0 -58.5 -38t-27.5 -82t-23.5 -82t-44.5 -38q0 10 -7 40t-3 40q0 4 8.5 21.5t18.5 37t19.5 35.5 t11.5 20q8 18 22 65.5t29.5 96.5t30 88t24.5 39q2 0 4 -1l2 -1q14 -4 15 -14v43h-29q12 4 14 11t2 18q0 25 -15 27.5t-36 2.5q-4 0 -17.5 -1t-17.5 -1q-4 -4 -9 -21.5t-5 -21.5t-2 -16t-5 -26.5t-5 -28t-2 -15.5q-12 -37 -34 -99.5t-46.5 -128t-49 -124.5t-42.5 -90 l-16.5 -16.5t-25 -29t-22.5 -33.5t-10 -30zM678 358h129v19q-33 0 -66.5 -3t-62.5 -16zM864 358h113q-4 4 -26.5 9.5t-30.5 5.5q-6 0 -29 -5.5t-27 -9.5zM989 963q0 -14 4 -24.5t13 -23.5q4 2 9 7.5t5 7.5q2 2 2 8q0 12 -11.5 18.5t-21.5 6.5zM1071 352q17 0 21 6 q2 2 -5.5 4.5t-17.5 2.5q-8 -1 -15 -3q-5 -2 -5 -3q0 -7 22 -7zM1135 358h92q0 18 -7.5 30.5t-27.5 12.5q-23 0 -33 -10t-24 -33z" />
<glyph unicode="B" horiz-adv-x="1622" d="M225 227q0 248 15.5 492t15.5 491v54q0 39 -1 83t-1 80v56q-12 45 -14 77.5t-2 79.5q0 8 1 36t1 36q14 25 35.5 50.5t50.5 35.5h321q95 0 195 1h20q90 0 174 -8q94 -9 179 -34.5t148.5 -78t100.5 -137.5t37 -214v-78q0 -55 -21.5 -100t-80.5 -82q-6 4 -13.5 0t-14.5 -10 t-11 -13l-4 -6v-6q0 -4 38 -40t84 -90t85 -119.5t39 -129.5q0 -33 -9.5 -60.5t-9.5 -62.5q0 -29 8 -46t8 -40q0 -31 -26.5 -75.5t-61 -91t-70.5 -84t-57 -56.5h15q16 0 28.5 7.5t28.5 7.5h14q-29 -39 -76.5 -66t-104 -44t-113 -25.5t-101.5 -8.5h-49q-18 0 -85 2t-143.5 5 t-143 5.5t-85.5 2.5h-14h-23h-22h-12q-2 0 -10.5 4t-18.5 10t-18.5 10t-10.5 4q-45 12 -84 16.5t-68.5 18.5t-46 44.5t-16.5 96.5zM438 1130q0 -35 43 -34q88 0 164 3t151.5 6t155.5 5q40 1 83.5 1t90.5 -1q27 0 51.5 16.5t42 41t27.5 52t10 52.5q0 39 -12 76.5t-36.5 67.5 t-59.5 48.5t-80 18.5h-457q-4 -6 -20.5 -17.5t-22.5 -11.5q-25 0 -27.5 18.5t-4.5 41t-14.5 41t-55.5 18.5q0 -41 8 -83t8 -85q0 -70 -13 -128t-30 -124q0 -2 -1 -10.5t-1 -12.5zM455 338q0 -6 5 -17.5t9 -11.5h672q39 0 77.5 19.5t69.5 50.5t50.5 68.5t19.5 74.5 q0 29 -14.5 73t-39 85t-56 70.5t-64.5 29.5h-443q-10 4 -36.5 9.5t-34.5 5.5q-2 2 -8 2h-9h-8q-4 0 -4 -2q-4 0 -14.5 -4.5t-22.5 -9.5t-22.5 -9t-12.5 -6h-8q-23 0 -27 20.5t-7 44t-13 44t-45 20.5q-2 0 -7 -5t-7 -9v-7v-8q2 -6 7 -27.5t7 -29.5v-414q-4 -6 -9 -28.5 t-5 -28.5zM526 696h15v-14zM563 1346q0 8 4 8h2q6 -4 6 -8t-6 -6q-1 -1 -2 -1q-4 0 -4 7z" />
<glyph unicode="C" horiz-adv-x="1591" d="M166 694q0 4 2 16.5t5 26t5 25.5t2 16q0 27 2 96.5t5 147.5t5.5 147.5t2.5 96.5q18 117 83.5 215t159.5 167.5t208 108.5t228 39q98 0 183.5 -25.5t162 -70.5t144.5 -105.5t133 -128.5q31 -35 51.5 -75.5t20.5 -87.5q0 -33 -14.5 -52.5t-33 -35t-32.5 -32t-14 -40.5 q-49 0 -80 17.5t-51.5 44t-37 58t-38.5 60.5q-25 35 -67 63.5t-91 50t-99 33t-93 11.5q-123 0 -229.5 -56.5t-164.5 -173.5h-20q0 57 37 108.5t81 91.5t80.5 64.5t36.5 28.5v8q-66 -8 -115 -34.5t-85.5 -66.5t-61 -91t-39.5 -109q-2 -2 -8 -13t-6 -15q-4 -10 -9 -32t-5 -26 v-514q0 -4 6 -19.5t15 -36t19.5 -40.5t16.5 -33q27 -49 70 -87t95 -63.5t109.5 -39t110.5 -13.5h59q41 0 80 6.5t90 24.5q16 23 38 39.5t45.5 32.5t47 32.5t41.5 39.5q27 33 40.5 65.5t28.5 59t41 44t77 17.5q45 0 79.5 -29.5t34.5 -79.5q0 -16 -5 -26t-21 -10t-28.5 6 t-29.5 6q0 -23 7.5 -44.5t7.5 -45.5q0 -16 -1 -32.5t-16 -31.5q-78 -94 -185 -175t-230 -112q-4 -2 -23.5 -6t-41 -9t-40 -8t-24.5 -5l-29 -15h29q76 0 155.5 24t154.5 61.5t142.5 87t120.5 100.5h14q-18 -78 -89.5 -136.5t-162 -99.5t-183.5 -61.5t-156 -20.5 q-104 0 -199.5 21.5t-181.5 81.5q-6 4 -22.5 20.5t-20.5 22.5q-2 0 -1 7l1 7l-43 15q-10 4 -24.5 11t-28 14t-23.5 12l-10 6q-2 2 -4.5 10t-4.5 17t-4 18.5t-2 11.5q-4 4 -21.5 14t-21.5 15q-25 18 -49 68t-45.5 109.5t-35 114.5t-13.5 80zM743 63q0 -14 11 -14q10 0 10 14 q0 15 -10 15t-11 -15zM1071 1538q0 -14 10 -14t11 14q-1 14 -11 14t-10 -14z" />
<glyph unicode="D" horiz-adv-x="1644" d="M188 780q0 12 6.5 21.5t24.5 7.5q-8 29 -3 62.5t32 52.5v444q10 41 13 69.5t3 69.5q0 47 -16.5 86t-16.5 84q0 18 7.5 44t20.5 49.5t32.5 40t42.5 16.5h643q129 0 243.5 -61.5t200.5 -159t136.5 -219t50.5 -244.5v-47q0 -37 -2 -104.5t-5 -136.5t-5.5 -123t-2.5 -64 q-4 -55 -24.5 -99.5t-20.5 -93.5q0 -27 11.5 -40t25.5 -23.5t25.5 -22.5t11.5 -37v-14q-45 -23 -83 -56.5t-73.5 -69.5t-74.5 -67.5t-84 -50.5q-23 -10 -54.5 -18t-65.5 -15.5t-67 -16.5t-57 -21h-39q-27 0 -57.5 -1.5t-59.5 -1.5h-37q-39 0 -102 -3q-38 -2 -79 -2 q-28 0 -57 1q-73 2 -146.5 12.5t-133 35t-97.5 68.5t-38 114q0 61 16.5 117.5t16.5 121.5q0 74 -2 133.5t-15 133.5q-45 -6 -45 28zM461 350q0 -16 9 -21t26 -5q68 0 154 -2q31 -1 61 -2q56 0 114 4q90 4 180.5 19t164 52t126 99.5t68.5 158.5q0 23 2 82.5t5 125t5 124.5 t2 82v25q0 70 -31.5 142.5t-85 130.5t-124 95t-146.5 37h-370q-2 0 -7.5 -5t-7.5 -9q-4 -6 -14 -28.5t-14 -29.5q-25 12 -26 43t0 63t-7 56.5t-47 24.5h-6q-4 -2 -8.5 -7.5t-6.5 -7.5v-6q0 -35 7.5 -64.5t7.5 -64.5q0 -268 -10 -526q-7 -182 -6 -368q0 -79 1 -158 q-10 -18 -13 -31t-3 -29zM559 498q23 0 33 -17l-14 -14q-19 8 -19 31zM561 672v24q0 4 1 14.5t1 14.5q18 -10 23.5 -18.5t5.5 -24.5q0 -10 -2 -17.5t-12 -11.5q-16 4 -17 19zM563 1124v15h15v-15h-15zM571 1268q1 14 6 15q1 0 1 -1q6 -4 6 -14q0 -12 -6.5 -14.5t-6.5 14.5z M1247 147q35 0 35 37q-35 0 -35 -37zM1327 188q4 1 8 7q2 6 -8 6q-6 0 -6 -4q0 -9 6 -9zM1364 223q2 0 7 -1t7 -1q14 0 29.5 11.5t29 29t22.5 36t9 32.5q-4 0 -20 -13.5t-33.5 -31t-33 -36t-17.5 -26.5z" />
<glyph unicode="E" horiz-adv-x="1681" d="M211 225q0 51 7 88t24 99q2 18 3 58t3 91t3 107.5t2 107.5t2 91t1 59v323v322q-4 35 -16.5 68.5t-12.5 66.5q0 12 5.5 31.5t15.5 36t22.5 29t28.5 12.5h1274q16 0 31.5 -11.5t28 -28t19.5 -35t7 -32.5q0 -88 -45 -133t-112.5 -64.5t-145.5 -21.5t-142 -4q-31 0 -110.5 -1 t-167.5 -1t-168 1t-111 1q-59 -23 -59 -86q0 -4 1 -9l1 -6q0 -4 7 -21t7 -22q0 -6 -1 -26.5t-3 -44t-5 -44t-5 -28.5l-14 -14h-8q-16 0 -19.5 12t-3.5 23q0 20 8 36.5t8 34.5q0 31 -4 70t-11 80t-14 78.5t-14 66.5q-2 10 -12 13.5t-22.5 2t-22.5 -4.5t-12 -3q0 -2 -2 -4 t0 -4q0 -4 7 -15t7 -14q0 -2 1 -16t3 -32.5t5 -37t5 -28.5v-6v-9q0 -14 -2 -49t-5 -72.5t-5 -72.5t-2 -49q-16 -29 -23.5 -47.5t-7.5 -46.5q0 -16 7.5 -33t29.5 -17h8q4 2 21.5 8.5t21.5 6.5q10 4 33 9t25 5h528q20 0 41 -34t38 -77t27.5 -81.5t10.5 -51.5 q0 -18 -25.5 -34.5t-58.5 -29.5t-63.5 -24.5t-41.5 -17.5h-399q-2 0 -6 -8.5t-8 -12.5l-15 -28v-230q0 -14 -14 -14q-6 0 -22.5 5t-20.5 9q0 16 -2 57.5t-5 86.5t-5 86t-2 57q0 6 -2 20.5t-5.5 31t-5.5 29.5t-2 17q0 2 -5 7.5t-9 7.5q-4 4 -21.5 14t-21.5 14q-14 -4 -15 -14 t-1 -20q0 -16 2 -26.5t14 -25.5v-342q-12 -14 -14 -28.5t-2 -30.5v-23q0 -18 16 -18l1088 -29q20 0 34.5 -13t23.5 -31.5t12 -39t3 -34.5q0 -45 -30.5 -74t-73.5 -46.5t-90 -24.5t-80 -9q-18 -2 -52 -5t-68 -5t-61.5 -3t-33.5 -1q-25 0 -103.5 1t-173 3t-181.5 4t-128 6 q-43 2 -103.5 8t-113.5 25.5t-91 55.5t-38 97zM457 82h28l-14 14zM514 96q0 -2 5 -7t9 -7h7h8l28 14h-57zM657 96q2 -6 21 -6q18 0 22 6q2 2 -5 4t-17 2q-8 0 -15.5 -2t-5.5 -4zM858 96q4 -6 14 -6q11 0 15 6q2 6 -17 6q-13 0 -13 -4q0 -1 1 -2zM985 96q2 -6 14 -6 q11 0 15 6q2 2 -3 4t-12 2q-6 0 -11 -2q-4 -1 -4 -3zM1042 96q2 -6 15 -6q10 0 14 6q2 2 -3 4t-11 2q-5 0 -11 -2q-4 -1 -5 -3zM1137 90q16 0 20 6q2 2 -5 4t-17 2q-7 0 -15 -2q-6 -2 -6 -3q0 -7 23 -7zM1200 82h23q18 0 30.5 2t32.5 12q-4 0 -17.5 1t-17.5 1h-26 q-20 0 -25 -16zM1378 76q4 0 8 6q2 6 -8 6q-6 0 -6 -4q0 -8 6 -8z" />
<glyph unicode="F" horiz-adv-x="1671" d="M201 319h16q2 0 6 28t8.5 71t8.5 95t8 103.5t7 94.5t5 65v23q0 20 1 46.5t1 53.5v43q0 20 1 50t0 62.5t-5 65.5t-12 58v401q-4 4 -10.5 15.5t-13.5 25.5t-12 26.5t-7 18.5q0 2 -1 7t-1 9q0 2 1 7l1 6l100 57q65 -2 130 -2q108 0 213 6q169 10 343 10h258q6 0 32 -2 t55.5 -5t54 -5t30.5 -2q4 0 18.5 2t32 5t32 5t18.5 2h16h12q37 -14 57.5 -24t31 -23.5t12.5 -34t2 -53.5q0 -29 -3 -59.5t-15.5 -57t-36 -44t-62.5 -19.5l-901 -29q-16 0 -27.5 -15t-17.5 -34.5t-9.5 -38t-3.5 -26.5h-10v61q0 51 -13 105.5t-48 76.5q-4 4 -20.5 -4t-20.5 -8 q0 -41 13 -76t13 -76q0 -90 -22.5 -180t-22.5 -180q0 -12 1 -30.5t22 -18.5h8q82 8 158 12t150.5 6t153.5 4t167 7q51 -25 86 -72q2 -6 3 -27.5t1 -29.5q0 -80 -36 -120t-92 -56.5t-126 -16.5t-138.5 -2t-129 -13.5t-97.5 -47.5q-4 4 -10 15t-13 25.5t-12 26.5t-8 19v6v8 q0 4 7.5 20.5t7.5 20.5q0 12 -11.5 20.5t-27.5 12.5t-32.5 5t-24.5 1q0 -141 4 -283.5t20 -284.5q10 -20 19.5 -42.5t9.5 -45.5q0 -18 -14.5 -40.5t-35 -41t-45 -32t-42.5 -13.5h-7q-45 18 -71.5 34t-41 34t-19.5 39.5t-5 52.5q0 39 -6 98q0 2 -7 13.5t-7 15.5q0 2 -1 7 t-1 7zM791 762h143q-14 14 -27.5 15t-29.5 1q-25 0 -42.5 -3t-43.5 -13z" />
<glyph unicode="G" horiz-adv-x="1599" d="M201 772v51v217q0 53 4 108.5t12 111.5q31 45 43 99t43 101q45 70 110.5 128.5t143.5 99.5t162 64.5t166 23.5q33 0 92 -9.5t121.5 -27t120 -41t86.5 -51.5l215 -215q35 -35 47 -88.5t12 -98.5q0 -10 -1 -25.5t-1 -17.5q-4 -6 -15.5 -19.5t-24.5 -26.5t-26.5 -25.5 t-19.5 -14.5q-4 0 -14.5 -1t-14.5 -1q-41 0 -75.5 24.5t-70.5 61.5t-74 80t-84 80t-103.5 61.5t-128.5 24.5q-63 0 -112.5 -13.5t-90.5 -40t-80 -63.5t-82 -84q0 -4 -2 -15t-6 -23.5t-11 -22.5t-18 -10q-12 0 -17 9t-5 19q0 37 17.5 76t43 75t56 67.5t57.5 54.5v12 q-27 0 -52.5 -17.5t-49 -40t-41 -46t-29.5 -37.5q-72 -84 -72 -187v-514q0 -4 5 -25.5t9 -31.5q51 -156 172 -228.5t281 -72.5q74 0 132.5 22.5t107.5 60.5t93 87t87 102q6 8 18.5 36t10.5 36q-2 4 -13.5 10t-15.5 4l-86 -43v-6v-8q2 -4 8 -15.5t6 -13.5t1 -4t1 -4 q0 -23 -16 -30t-33 -7q-51 0 -99 14.5t-86 43t-60.5 70.5t-22.5 95q0 49 33.5 86t89.5 37q12 0 33.5 -5t44 -10t42 -10.5t29.5 -5.5q18 0 62.5 -2t95.5 -5t95 -5t63 -2q23 -8 26.5 -20.5t3.5 -28.5q0 -4 -1 -12.5t-1 -10.5q-25 -88 -42 -160.5t-42.5 -137t-68.5 -124 t-119 -120.5l-14 -9q-13 -10 -31.5 -22t-37.5 -23.5t-31.5 -17.5t-29 -10t-32 -9.5t-25.5 -13.5t-10 -22q55 0 104.5 19.5t94.5 49t87 64.5t83 65l28 15q0 -2 1 -4t1 -4q0 -20 -28.5 -51t-66.5 -60t-73.5 -52.5t-48.5 -29.5q-16 -8 -43.5 -20.5t-54.5 -23.5t-48.5 -19.5 t-25.5 -8.5h-356q-4 0 -20.5 5.5t-22.5 9.5q-6 2 -18.5 8t-26 13t-25.5 13.5t-16 8.5l28 14h-11q-85 0 -146 57l-2 7q0 2 1 5l1 3q2 2 6 7t8 7q-25 29 -48.5 35t-51.5 22q-4 2 -10.5 14.5t-15.5 28t-20.5 31.5t-25.5 27q-29 20 -39 58t-16 77t-13.5 69.5t-31.5 38.5v50 q0 35 -1 74.5t-1 74.5z" />
<glyph unicode="H" horiz-adv-x="1619" d="M164 217q0 45 13 77t18 77q8 92 12 179t5 173v87v88q-1 89 -1 187v56v86q0 49 -1 102t-1 101v86v57q-10 25 -12 41t-2 39q0 70 33.5 88t95.5 18q23 0 48 -2t46.5 -11t35 -27.5t13.5 -51.5v-8q-33 -129 -36 -262t-7 -269q-20 -23 -25.5 -41t-5.5 -45q0 -29 12.5 -36 t36.5 -7q98 0 196.5 8.5t199.5 8.5q123 0 240.5 -8.5t240.5 -8.5q23 0 44 6.5t21 36.5q0 29 -15 49.5t-15 51.5v459q-4 6 -9.5 27.5t-5.5 29.5q0 29 14.5 48t36 30.5t47 16.5t48.5 5q53 0 82.5 -21.5t29.5 -76.5q0 -96 -11 -190.5t-24.5 -187.5t-24.5 -187.5t-11 -188.5v-8 q0 -27 2 -98.5t5 -151.5t5 -151.5t2 -98.5q18 -25 29.5 -55.5t17.5 -64t9 -66.5t3 -61q0 -53 -28.5 -89t-87.5 -36q-23 0 -49.5 8t-51 23.5t-41 37t-16.5 45.5v244h14q2 0 7.5 27.5t7.5 44.5v12q0 35 -2 76t-27 69q-2 -4 -13.5 -9t-15.5 -5q-18 0 -30.5 11.5t-23.5 24.5 t-25.5 24.5t-34.5 11.5h-586q-31 0 -46 -46t-21.5 -105.5t-9.5 -116t-9 -76.5q-16 53 -20.5 110.5t-4.5 114.5q0 59 1 117v17q0 50 -5 97q-6 18 -14 24.5t-19.5 5.5t-22.5 -5t-24 -4q0 -4 -4 -10.5t-3 -10.5q0 -4 6 -11t12 -16t11 -17.5t7 -10.5v-416q29 -47 35 -86t6 -90 q0 -8 -2 -28.5t-2 -24.5l-14 -14l-15 14q-14 -4 -16 -18.5t2 -24.5l-57 -14h-15q-82 0 -135 57t-53 133zM1249 1124q0 18 5.5 29.5t11.5 21t11 17.5t5 22v330q0 10 8.5 31t20.5 27l14 -58v-301q0 -47 -14.5 -83t-61.5 -36zM1296 784q8 -12 24.5 -33.5t18.5 -21.5h15v88 q-10 0 -34 -4t-24 -20v-9z" />
<glyph unicode="I" horiz-adv-x="915" d="M178 195v28q0 27 7.5 50.5t35.5 23.5h187q18 0 23 16.5t5 32.5v19q0 35 -8 62.5t-8 59.5q0 35 3 59.5t13 63.5v973q0 2 -5 7t-9 7h-8q-12 0 -32 -10t-20 -24q0 -20 8.5 -36t8.5 -38v-31q0 -18 -23 -18q-16 0 -46.5 27.5t-59.5 64.5t-50.5 73.5t-21.5 55.5q0 8 2 28.5 t8.5 41t17.5 37t30 16.5h600q16 0 36.5 -22.5t20.5 -35.5v-157q0 -16 -21.5 -33.5t-48 -33t-53.5 -26t-35 -10.5q-25 0 -26.5 19.5t-4 44t-17.5 44t-66 19.5v-1155q-20 -23 -25.5 -46t-5.5 -52q0 -6 1 -18l1 -11l29 -14h186q20 0 34.5 -14.5t22.5 -34t11.5 -40t3.5 -34.5 q0 -43 -20.5 -63.5t-46.5 -31.5t-52.5 -20.5t-38.5 -33.5h-313q-2 0 -7.5 5t-7.5 9l-1 3t-1 5t1 4l1 2q4 4 14.5 12.5t14.5 8.5h270q-12 18 -33.5 28.5t-45 15.5t-48 6t-43.5 1q-61 0 -119.5 -22.5t-117.5 -22.5q-4 0 -23.5 1t-25.5 1q-25 18 -41.5 50t-16.5 63z" />
<glyph unicode="J" horiz-adv-x="1570" d="M188 696q0 57 27 89t88 32q59 0 100 -59q-1 -18 -1 -36q0 -72 20 -138q24 -82 74.5 -141.5t127 -94.5t175.5 -35q70 0 133 23.5t115.5 64.5t92.5 96.5t64 118.5q2 12 5 45t5.5 69t3.5 68.5t1 45.5q0 33 1 98.5t1 151.5v180v178q0 86 -1 152.5t-1 99.5q0 4 4 16.5t10 24.5 t13 21.5t16 9.5h129l43 -43v-62v-96q0 -27 -2 -96.5t-5.5 -147.5t-5.5 -147.5t-2 -96.5q-18 -53 -24 -108t-6 -113q0 -55 2 -112q1 -28 1 -55t-1 -54q-8 -162 -100.5 -293t-243.5 -194q-47 -18 -94.5 -32.5t-90.5 -39.5q4 0 20.5 -1t20.5 -1q86 0 176 40t154 91 q2 2 16.5 13.5t30.5 25.5t31.5 27.5t21.5 19.5q4 2 15.5 14.5t13.5 14.5q2 0 9 2t9 2q0 -23 -18.5 -44.5t-28.5 -31.5q-221 -244 -545 -244q-84 0 -162.5 28t-150.5 74t-133 105.5t-111 122.5q-4 4 -14 26.5t-14 30.5l-1 5q-1 6 -1 10q0 18 9 25.5t9 29.5q0 55 -15.5 110.5 t-15.5 114.5zM303 336q0 -20 10.5 -44t34.5 -24q0 23 -14.5 42.5t-30.5 33.5v-8zM399 231q0 -16 16.5 -31.5t39 -28.5t44 -21.5t33.5 -8.5q4 0 14.5 1t14.5 1q-10 14 -29.5 29.5t-43 29t-47.5 21.5t-42 8zM584 133q0 -16 12 -24.5t29 -8.5h8l14 15q-4 12 -20.5 15t-32.5 3 h-10zM705 86h129q-16 16 -37 16h-37h-29q-23 0 -26 -16zM1477 1460q-1 3 -1 6q0 13 14 24q17 13 30 13q18 0 24 -10t6 -27q0 -16 -8 -33.5t-31 -17.5l-6 2q-6 6 -16 22.5t-12 20.5z" />
<glyph unicode="K" horiz-adv-x="1640" d="M201 197q0 186 14 366t14 365q0 186 -14 364t-14 365q0 51 34.5 84t86.5 33q37 0 69.5 -11.5t52.5 -46.5v-71q0 -104 -3 -199.5t-11 -202.5q-4 -41 -17.5 -79t-13.5 -79q0 -20 4.5 -31.5t26.5 -11.5h14q2 2 13.5 9.5t26 16.5t27.5 18.5t19 13.5q205 152 402.5 308.5 t413.5 293.5q29 18 45 29.5t29.5 18.5t28.5 9t42 2q45 1 81 -33q32 -30 32 -73v-10q-4 -45 -23.5 -91.5t-48.5 -80.5l-29 -29q-10 -8 -37.5 -29.5t-60.5 -47.5t-61.5 -48.5t-40.5 -32.5q-23 -18 -66 -52t-89 -69t-88 -60.5t-63 -25.5q0 35 -1 48.5t20 29.5q16 12 45 34.5 t58.5 45.5t53 41t29.5 22q82 59 163 110.5t167 105.5l14 14h-14q-74 0 -148.5 -47t-148.5 -109.5t-144.5 -125t-132.5 -91.5q-10 -6 -27.5 -8t-33.5 -5t-27.5 -13.5t-11.5 -30.5v-8q0 -4 2 -7l24.5 -24.5l39 -39t39 -38.5t24.5 -27q104 -113 190.5 -238.5t182.5 -246.5 q25 -31 67.5 -75t85.5 -89t74 -86t31 -65q0 -33 -15.5 -57.5t-40 -41t-54 -24.5t-56.5 -8q-53 0 -77.5 19t-36 43t-16.5 44.5t-19 24.5q0 -4 -5.5 -14.5t-9.5 -14.5l-2 -1t-4 -1q-10 0 -37.5 28.5t-58.5 65.5t-55.5 73t-28.5 50q-12 12 -41 44t-60.5 67.5t-59.5 69.5t-38 48 q-6 6 -27.5 34t-45 59.5t-44 58.5t-26.5 33q-23 29 -29 37t-22 8h-25q-59 0 -91 -32t-47.5 -78t-17.5 -98q-1 -17 -1 -33q0 -32 3 -60l-14 -15l-14 15v284l14 29h-86v-72q0 -25 2 -90t5 -138t5 -138.5t2 -89.5q25 -27 28 -51.5t3 -57.5q0 -59 -38 -97t-101 -38 q-72 0 -103.5 47t-31.5 109zM631 913h14h14q4 0 28 7.5t30 7.5q2 0 7 -6.5t7 -8.5q2 0 9.5 -1t9.5 -1q0 10 -2.5 25.5t-7.5 30t-14.5 24.5t-23.5 10q-18 0 -26 -10t-14.5 -24.5t-12.5 -29.5t-18 -24zM840 774q0 -16 11 -26.5t23 -18.5q0 -2 7 -2q6 0 8 2q-6 16 -16 30.5 t-33 14.5zM893 686q0 -14 10 -14t10 14t-10 14t-10 -14zM920 657q0 -14 10 -14t10 14q0 15 -10 15t-10 -15zM944 635q0 -14 22.5 -50t56.5 -81t74 -95.5t75.5 -91.5t59 -67.5t28.5 -26.5v19q0 2 -11.5 21.5t-28 44t-33 50t-28.5 41.5q-16 20 -44 56.5t-54.5 71t-48 60 t-25.5 27.5l-43 29v-8zM1171 856q0 25 18.5 35t41.5 22q0 2 8 2q20 0 28.5 -17t8.5 -34q0 -20 -11.5 -35.5t-33.5 -15.5q-18 0 -39 10t-21 33z" />
<glyph unicode="L" horiz-adv-x="1611" d="M201 211q0 391 9 774q6 265 6 534q0 120 -1 240q16 25 46 41.5t61 16.5q37 0 69.5 -11.5t52.5 -46.5q0 -10 -1 -32.5t-1 -47.5t1 -47t1 -30q0 -4 7.5 -21.5t7.5 -21.5q0 -41 -14.5 -90.5t-14.5 -96.5q0 -37 -1 -113.5t-3 -175t-3 -205t-3 -205t-3 -175t-1 -113.5 q-4 -4 -8.5 -14.5t-6.5 -14.5v-8q0 -29 21.5 -33t38.5 -4q33 0 55.5 3t56.5 14h945q18 0 32.5 -12.5t23.5 -29t13 -35t4 -32.5q0 -25 -8 -48.5t-22.5 -42.5t-36 -31.5t-47.5 -12.5h-17q-8 2 -30.5 6t-47 8t-48 8.5t-31.5 6.5h-873q-10 0 -30.5 -7.5t-26.5 -21.5q27 0 84 1 t129 1h151h152q72 0 129 -1t84 -1q14 0 53 -1t82 -3t82 -5t55 -5q8 0 29.5 -5.5t28.5 -9.5l-15 -14l-129 -14h-39q-33 0 -76 -1t-86 -1h-67q-80 1 -167 -3q-68 -3 -137 -3h-40q-90 1 -178 8.5t-168 27.5l-16 11q-17 12 -36.5 26t-38 28.5t-24.5 20.5q-15 19 -15 30z" />
<glyph unicode="M" horiz-adv-x="1757" d="M201 209q0 315 22.5 630.5t22.5 630.5q0 49 -15.5 94.5t-15.5 94.5q0 53 32 84t85 31q37 0 60.5 -6.5t53.5 -38.5q14 -55 34 -109.5t67 -91.5q14 -20 51 -71.5t78 -108t78 -107.5t51 -72q2 -4 14 -24.5t27.5 -48t32 -55t26.5 -44.5q10 -18 13.5 -29.5t6.5 -17.5t8 -8 t19 -2q29 0 53.5 28.5t45 67.5t37 77t30.5 56q18 23 63.5 80.5t95.5 122t94 120.5t63 79q16 35 29.5 68.5t31.5 60t46 43t71 16.5q45 0 77.5 -23.5t32.5 -74.5q0 -35 -5 -70t-25 -63v-21q0 -12 -1 -26.5t-1 -28.5v-16v-68q0 -41 16 -70v-929q2 -10 6 -35t8 -51.5t8.5 -51 t6.5 -34.5v-15q0 -29 -14.5 -55.5t-37 -47t-51 -31.5t-55.5 -9q-68 6 -92.5 48t-24.5 97q0 135 16.5 268.5t16.5 270.5v53q0 33 -1 65.5t-1 57.5v27q0 6 -1 22.5t-4 37t-9.5 39.5t-14.5 30l-14 -15v-129q0 -33 -2 -113.5t-5 -171.5t-5 -172t-2 -114q-6 18 -10.5 65.5 t-8.5 106.5t-9 122.5t-13.5 117t-18.5 87t-26 33.5q-2 0 -7.5 -1t-7.5 -3q-8 -8 -28.5 -27.5t-43 -43t-43 -43t-28.5 -27.5q-23 -23 -45.5 -53.5t-47 -57t-54 -45t-66.5 -18.5q-70 0 -120 47t-93 104.5t-85 104.5t-97 47q-16 0 -23.5 -4t-11.5 -27q-19 -126 -19 -251v-19 q0 -15 1 -30q0 -120 -11 -242l-14 100v643l-43 100q-4 -59 -7 -109t-5.5 -95t-3.5 -89.5t-1 -91.5v-137q0 -53 -1 -90q0 -18 -1 -36q0 -18 1 -34q1 -32 5.5 -67t12.5 -80q0 -4 4 -23.5t10 -41t10 -41t4 -23.5v-23q0 -45 -33.5 -82.5t-80.5 -37.5q-35 0 -67 16t-55.5 43 t-37.5 59.5t-14 65.5zM418 1184h14v28h-14v-28zM1133 756q2 -2 8 -2t6 2q2 0 7 5t7 9l187 285h-15q-4 -6 -20.5 -28.5t-22.5 -29.5l-28 -28q-12 -16 -32 -42t-38 -51.5t-31.5 -44t-13.5 -20.5zM1370 1104q0 -6 4 -6h2q6 2 6 6t-6 8q-6 2 -6 -8zM1423 1198q0 -14 11 -14 q10 0 10 14t-10 14t-11 -14z" />
<glyph unicode="N" horiz-adv-x="1615" d="M190 240q0 45 2.5 77.5t12.5 83.5v82q0 57 1 127t3 149t3 148.5t3 126t4 82.5q4 80 16.5 159t12.5 159q0 61 -15.5 119.5t-15.5 119.5q0 104 107 105h32q20 0 27.5 -6.5t36.5 -24.5l14 -14q63 -115 147.5 -227.5t174.5 -223.5t181 -219.5t169 -218.5q10 -14 29.5 -42 t40 -57.5t38 -54t21.5 -31.5q12 -18 25.5 -48.5t31 -61.5t39 -53.5t47.5 -22.5q14 0 15 14v17q0 12 1 25.5t1 25.5v18q0 51 -15.5 94.5t-15.5 90.5v960q0 10 14.5 22.5t34 24t37.5 18.5t29 7q12 -2 28.5 -6t32.5 -10.5t31.5 -16.5t21.5 -24v-152q0 -258 -2 -512t-26 -510 q-10 -2 -13.5 -10t-4.5 -17.5t0 -18.5t1 -11q0 -39 7.5 -77t16.5 -76t16 -75.5t7 -76.5q0 -12 -6 -38t-16 -52.5t-23.5 -49t-27.5 -28.5q-6 0 -25.5 -1t-23.5 -1h-43q-20 0 -37 16l-187 186l-528 643l-100 101q-2 2 -9 2q-10 0 -15 -11.5t-9 -26.5t-9.5 -29.5t-15.5 -20.5 l-14 14q0 10 -2 37t-5 56.5t-5 56t-2 36.5q-2 10 -3.5 28t-4.5 35t-11 31.5t-24 20.5q-2 -23 -5.5 -77t-5.5 -115.5t-3 -116.5t-1 -78v-29q0 -25 -1 -56.5t-1 -61.5v-50v-43q0 -27 1 -52t1 -44v-20q0 -10 3 -40t7.5 -63.5t9.5 -65.5t9 -46q0 -4 4 -16.5t10 -27t10.5 -27.5 t4.5 -15v-8q0 -23 -16.5 -45.5t-39 -40t-49.5 -27.5t-47 -10q-37 0 -64.5 21.5t-46 54t-29 69.5t-10.5 68zM428 1280q0 -27 1 -48.5t5 -14.5q2 8 4 26.5t2 38.5t-2 39t-4 25q-1 2 -2 2q-2 0 -3 -16q-1 -22 -1 -52zM653 1030q0 -14 11 -14q10 0 10 14t-10 14t-11 -14z M721 958l14 -28v28h-14zM842 795q0 -10 8 -9q6 2 6 9q0 2 -6 6h-3q-5 0 -5 -6zM885 737q0 -8 8 -6q6 2 6 6q0 2 -6 6h-3q-5 0 -5 -6zM920 688h14l-14 14v-14zM1034 545q27 -45 64 -88t73.5 -86t69.5 -89t51 -96q14 0 15 15q0 6 -5.5 28.5t-9.5 28.5q-12 14 -45 53t-69.5 82 t-69.5 82t-45 55l-14 15h-7h-8z" />
<glyph unicode="O" horiz-adv-x="1570" d="M201 479h24q0 4 4 14.5t2 14.5t-13 21.5t-15 21.5v715q0 4 11 30.5t17 40.5q102 219 255 324.5t391 105.5q53 0 106 1h6q50 0 101 -15q70 -20 142.5 -68.5t136 -113t108.5 -140t57 -151.5q12 -78 13 -138.5t1 -135.5v-105q0 -35 -1 -66.5t-2 -66.5t-4 -74t-7 -86 q-4 -6 -10 -20.5t-13.5 -29.5t-12.5 -29.5t-7 -20.5q-18 -55 -41 -98t-52.5 -81t-66.5 -74t-84 -77q2 0 7.5 -1t7.5 -1q31 0 70.5 27.5t77.5 65.5t68.5 77t41.5 62q0 -2 1 -7.5t1 -7.5q0 -41 -33 -90t-79 -95t-95 -82t-82 -48q-18 -6 -44 -16.5t-50.5 -19.5t-43 -15.5 t-20.5 -6.5h-370q-61 0 -130 36t-133.5 88.5t-116.5 113t-79 107.5h14q16 0 21.5 -6.5t19.5 -6.5q0 29 -16.5 55.5t-38.5 43.5l-15 -29q-14 8 -22 24.5t-8 32.5zM307 336q0 -14 10 -14t11 14q-1 14 -11 14t-10 -14zM328 326q0 -12 7 -28.5t19.5 -31t26.5 -24t29 -9.5 q2 0 4 1.5t4 1.5q-6 10 -15.5 25t-21.5 29.5t-25.5 25t-27.5 10.5zM418 666q0 -4 5 -19.5t9 -23.5q29 -72 71 -132.5t97 -104.5t121.5 -69.5t146.5 -25.5q74 0 139.5 22.5t122 61.5t104.5 92t85 113q0 12 2 44.5t5 68.5t5 69t2 45v41q0 8 1 25.5t-15 19.5l-29 -72l-14 29 q-2 104 -11.5 211.5t-46 194.5t-113.5 141.5t-214 54.5q-111 0 -205 -47t-139 -154q-20 -45 -25.5 -94t-32.5 -92l-14 14q-2 2 -2 23v31q0 92 38 172.5t107 146.5v14q-41 -16 -77.5 -51t-64 -79t-43 -92t-15.5 -93v-485zM465 178q0 -14 10 -14t10 14q0 15 -10 15t-10 -15z M494 164q0 -14 10 -14t10 14t-10 14t-10 -14zM733 63q2 -6 15 -6q10 0 14 6q2 2 -3 4.5t-11 2.5t-12 -2q-4 -1 -4 -3q0 -1 1 -2zM791 64q4 -6 14 -7q10 0 14 6q2 6 -16 7q-13 0 -13 -4q0 -1 1 -2zM918 63h86q0 2 -5.5 7.5t-9.5 7.5h-6h-8q-6 -2 -27.5 -7t-29.5 -8zM1118 106 q6 2 21.5 5.5t30 9.5t25.5 14t11 21q0 2 -1 4t-1 4q-23 -8 -46 -21.5t-40 -36.5zM1251 1323q0 -14 11 -14q10 0 10 14t-10 14t-11 -14zM1276 1223q2 -4 8 -29t6 -29q2 -12 6 -42.5t8.5 -64.5t8.5 -64.5t6 -43.5l14 15q0 2 1 19t1 28q0 63 -5 130.5t-40 123.5l-14 -29v-6v-8z " />
<glyph unicode="P" horiz-adv-x="1599" d="M186 201q0 10 1 34.5t1 28.5q23 221 34 428t11 430v84q0 59 -1 125t-1 125v82q-25 27 -27.5 52.5t-2.5 58.5q0 14 4 32.5t13 35t22.5 26.5t33.5 10h830q80 0 164 -35t152.5 -93t112.5 -135t44 -159q0 -27 -7 -51.5t-7 -48.5q0 -23 7 -44.5t7 -43.5q0 -59 -23.5 -110.5 t-59.5 -95.5t-79 -83t-82 -76h15q23 0 46 15.5t40 27.5q6 6 22.5 20.5t34.5 30t34.5 29.5t22.5 21h15v-29q0 -4 -19.5 -24.5t-47.5 -48t-57.5 -55.5t-47.5 -44q-49 -41 -111.5 -63.5t-128.5 -33t-133.5 -12.5t-128.5 -4q-16 0 -56 -1t-85 -1t-86 1t-58 1q-47 -10 -86 -43 q-16 8 -22.5 27.5t-6.5 36.5v8q0 4 7.5 27.5t7.5 29.5v6v9q-4 2 -12.5 8t-17.5 12t-17 12.5t-11 8.5q0 2 -8 2q-12 0 -17 -9.5t-5 -19.5q0 -18 7 -43t30 -29v-415q14 -23 18 -40.5t4 -39.5q0 -23 -15.5 -46.5t-37 -44t-47 -34t-43.5 -13.5q-4 0 -10 1l-5 1q-70 35 -100.5 71 t-30.5 110zM416 956q0 -16 4 -30.5t26 -18.5q4 0 21.5 7.5t21.5 7.5q8 2 22.5 6t28 7t23.5 6t12 3h572q2 0 18.5 8.5t24.5 12.5q86 47 130 109.5t44 164.5q0 27 -8 51.5t-23 46.5q-16 -10 -21 -28.5t-22 -28.5q-6 18 -20.5 44t-33.5 47.5t-42 36.5t-47 15h-428 q-29 8 -48.5 11.5t-45.5 3.5q-16 0 -28.5 -7.5t-24 -14.5t-22.5 -14t-26 -7h-6q-4 14 -5 34.5t-4 39t-13.5 31.5t-32.5 13q0 -117 -4 -231.5t-13 -230.5q-25 -10 -27.5 -41t-2.5 -54zM508 1337q0 15 10 15t10 -15q0 -14 -10 -14t-10 14zM512 1251h20v-43q-14 4 -17 18.5 t-3 24.5zM805 709q2 -8 14 -9q13 1 15 9q2 6 -17 6q-13 0 -13 -4q0 -1 1 -2zM889 709q8 -4 26.5 -6.5t38.5 -2.5t39 2.5t25 6.5q8 2 -14.5 4t-51.5 2q-27 0 -48 -2q-16 -2 -16 -3t1 -1zM1061 709q8 -8 37 -9q27 1 35 9q4 2 -8.5 4t-28.5 2q-14 0 -26 -2q-9 -2 -10 -3 q0 -1 1 -1zM1208 1466q0 -14 11 -14q10 0 10 14q0 15 -10 15t-11 -15zM1274 1427q0 -23 16 -32l15 14q-11 18 -31 18z" />
<glyph unicode="Q" horiz-adv-x="1642" d="M188 625v571q0 2 5.5 18.5t9.5 24.5q27 66 45 129.5t55 128.5q43 74 108.5 130t143.5 94t163 57.5t165 19.5q115 0 220 -37t192 -102.5t152.5 -158.5t100.5 -204q16 -55 17 -122v-121q0 -135 -1 -273.5t-44 -269.5q-6 -18 -24.5 -38.5t-39 -40t-36 -35t-15.5 -23.5 q0 -25 34 -42.5t73.5 -40t73.5 -55t34 -83.5q0 -68 -42 -92.5t-101 -24.5q-29 0 -54.5 9t-50 20.5t-50.5 20.5t-52 9h-8q-104 -27 -200.5 -49t-207.5 -22q-174 0 -317.5 85t-247.5 216q-18 23 -41 54t-23 66q14 0 19.5 -8t9.5 -17t9 -17.5t18 -8.5q2 0 4 1t4 1 q-6 23 -14.5 56.5t-20.5 67.5t-28.5 63.5t-37.5 42.5zM322 352q0 -14 10 -14t10 14q0 15 -10 15t-10 -15zM350 309q0 -14 10 -14t11 14q-1 15 -11 15t-10 -15zM365 295q0 -14 10 -14t10 14t-10 14t-10 -14zM379 281q0 -14 10 -15q10 0 10 15q0 14 -10 14t-10 -14zM418 1139 q0 -6 2 -34t5 -59.5t5 -59.5t2 -34v-47v-82v-82v-45q4 -92 47 -161.5t108.5 -116.5t147.5 -71.5t162 -24.5q27 0 61 -2h14q26 0 52 4q33 6 61.5 18t47.5 39q-4 2 -15.5 11t-24 21.5t-21.5 22.5t-11 17l-1 10t-1 14q0 106 102 107q6 0 17 -1l12 -1l86 -86q23 14 39 35.5 t18 50.5q-1 32 -1 64q0 83 8 161q10 108 10 225q0 25 2 60q1 18 1 36t-1 37q-2 37 -12.5 69t-34.5 48v-137q-8 0 -19.5 24.5t-30 60.5t-47 78t-71.5 77.5t-102.5 60t-137.5 24.5q-90 0 -157.5 -25.5t-116 -73.5t-81 -117.5t-53.5 -157.5l-14 -15v29q0 51 8.5 95t22.5 85 t35.5 81t48.5 83q-78 -68 -123 -138.5t-49 -176.5zM461 852v8v6q0 6 2 20.5t5 31t5 30t2 19.5q14 -23 15.5 -49.5t1.5 -53.5q0 -8 -1.5 -23.5t-1.5 -17.5l-14 -14q-2 6 -7 22.5t-7 20.5zM487 717q0 35 24 38t58 3q0 -31 -21.5 -52.5t-43.5 -37.5q-12 12 -14.5 22.5 t-2.5 26.5zM608 1468q0 -14 10 -14t11 14q-1 15 -11 15t-10 -15zM1233 195l72 -29q2 2 2 10v10q0 16 -8.5 34t-28.5 18q-14 0 -23.5 -16.5t-13.5 -26.5zM1245 1001q35 0 55.5 -4t20.5 -39q0 -34 -35 -34h-2h-8q-10 16 -20.5 35t-10.5 42zM1276 1311h18q0 18 -18 28v-28z" />
<glyph unicode="R" horiz-adv-x="1640" d="M197 260q0 16 4 30.5t14 22.5q23 154 27 293t4 287v201v84q0 59 -1 126.5t-1 127.5v84q-10 41 -12.5 66.5t-2.5 64.5q0 10 2 29.5t8.5 38t17.5 31.5t30 13h901q35 -23 71.5 -31t71.5 -26q76 -43 125 -98.5t79 -122t42 -141t12 -156.5q0 -115 -59.5 -205t-140.5 -166h14 q25 0 42 16.5t32.5 37t31 37t37.5 16.5v-50l-114 -114q-18 -16 -49 -37t-60 -21h-4q-2 0 -2 2q-14 4 -14 15q0 8 10 22.5t18 18.5h-143q-10 0 -12 -10.5t-2 -16.5v-14q117 -123 217 -251t213 -251q10 -29 12 -47.5t2 -46.5v-35q-41 -16 -68.5 -37.5t-74.5 -21.5 q-68 0 -96.5 20.5t-43 53t-23.5 73.5t-38 84q-8 12 -34 46t-55.5 72t-57 73.5t-40.5 52.5l-71 71v-8q0 -43 45 -99t99 -116.5t99.5 -120t45.5 -108.5l-2 -6q-66 55 -119.5 121.5t-103.5 135t-103 136t-117 123.5h-94q-55 0 -97 -1t-72 -14.5t-49.5 -43t-31.5 -85.5 q-10 41 -13 67t-3 62q0 27 8 48.5t8 44.5q0 35 -27.5 42t-54.5 7q0 -31 7.5 -50.5t17.5 -48.5q0 -18 -1 -63t-1 -96q0 -49 1 -93.5t1 -62.5q2 -41 15 -70.5t13 -64.5q0 -78 -28.5 -129t-114.5 -51q-39 0 -66.5 16t-45 43t-25.5 59.5t-8 63.5q0 6 -1 20.5t-1 30.5zM428 963 q0 -4 1 -19.5t15 -15.5h701q20 0 55 23.5t67.5 55t59.5 62.5t33 45q10 25 13 55.5t3 59.5q0 35 -3 57.5t-13 56.5q-2 2 -7 3.5t-7 1.5q-30 0 -30 -35q0 -6 1 -13q-25 18 -42.5 43t-36.5 47.5t-44 38t-64 15.5h-514q-45 0 -62 -18.5t-38 -53.5q-6 10 -17.5 36t-11.5 36 q0 4 6.5 21.5t8.5 21.5q0 2 1 14t1 19q0 27 -12.5 33t-40.5 6h-7q-4 -2 -9 -7.5t-5 -7.5q0 -4 6 -15t8 -13q4 -8 9.5 -24.5t5.5 -18.5v-388q0 -33 -15.5 -60t-15.5 -62zM860 700q14 -2 28.5 -14t26 -25.5t21.5 -23.5t16 -10t6 2q4 2 9.5 7t5.5 7q0 12 -5 28.5t-13.5 33 t-19.5 27.5t-24 11q-23 0 -33 -10t-18 -33zM1059 1057q2 0 7 1t7 1q10 0 17.5 -2t11.5 -15l-15 -14zM1274 1444l29 -29h8h6q-2 4 -13.5 14.5t-15.5 14.5l-2 1t-4 1t-4 -1t-4 -1z" />
<glyph unicode="S" horiz-adv-x="1540" d="M199 522q0 57 41 84t90 27q43 0 65.5 -14.5t36.5 -37t25.5 -51t29.5 -55.5q70 -102 166.5 -138t212.5 -36q117 0 208 41t171 133q18 18 24.5 36.5t6.5 41.5q0 25 -13.5 55.5t-35 58t-49 47t-54.5 19.5q-10 0 -21 -1t-16 -15q53 -16 78 -46t25 -83q0 -2 1 -10.5t0 -18.5 t-5 -18.5t-12 -8.5q-2 0 -7.5 5.5t-7.5 9.5q-2 2 -8 14t-13.5 27.5t-13.5 28t-8 16.5q-10 14 -35.5 21.5t-56.5 10.5t-60.5 5t-48.5 6q-12 2 -49 9t-79 16.5t-78.5 17.5t-49.5 12q-12 10 -34.5 17.5t-45 12.5t-41 8t-22.5 5q-31 12 -80 37t-95 58.5t-80 74.5t-34 88h29 q0 29 -5 52.5t-22 48.5v215q14 23 20.5 50t22.5 50q104 154 266 242t349 88q47 0 112.5 -18.5t135 -51.5t138 -77t123 -95t88.5 -108.5t34 -114.5q0 -18 -18.5 -51t-45.5 -65t-53.5 -55.5t-40.5 -23.5q-39 0 -68.5 24.5t-57.5 61.5t-58.5 79t-70.5 79t-94.5 61.5 t-129.5 24.5q-47 0 -96.5 -10.5t-94.5 -32t-83 -54t-62 -75.5q-2 0 -4 -1t-4 -1q-14 0 -18.5 17.5t-4.5 29.5t7 20.5t15.5 15.5t15.5 16t7 24v8q-47 -10 -75.5 -48t-28.5 -83q0 -84 61.5 -132t155.5 -77t207.5 -47.5t219 -46t188.5 -72.5t116 -125q0 -10 1 -38.5t3 -60.5 t5 -60.5t5 -39.5q2 -16 9.5 -29.5t15.5 -25.5t14 -24.5t6 -28.5q0 -53 -31.5 -101.5t-76.5 -90.5t-95.5 -75.5t-84.5 -54.5q-16 -10 -41 -17t-50.5 -16.5t-47 -21.5t-34.5 -31q4 0 18.5 -1t18.5 -1q31 0 74 18.5t86 44t83 53.5t65 44h18q0 -14 -12.5 -25.5t-20.5 -17.5 q-61 -51 -117.5 -83t-115 -48t-123 -22.5t-144.5 -6.5h-28q-20 0 -44 1t-44 1h-27q-25 10 -46 15.5t-41.5 8.5t-40 7t-44 12.5t-66.5 36t-85 63.5t-78 74.5t-43 69.5v12v23v22v15q-10 39 -27.5 69.5t-17.5 77.5zM287 1004q2 -4 13 -20.5l15 -22.5l15 -15l14 15l-57 57v-6v-8 zM330 260q4 -6 16 -20.5t28.5 -29.5t33 -26.5t28.5 -11.5q2 0 4 1t4 1q-6 8 -19 22.5t-29.5 29t-33 24.5t-26.5 10h-6zM592 1448q0 -14 10 -14t10 14t-10 14t-10 -14zM602 831h57v21q-8 0 -30.5 -2t-26.5 -19zM717 817q12 -12 26.5 -13t30.5 -1h29q-14 14 -27.5 15t-30.5 1 h-14q-12 0 -14 -2zM938 754q2 0 6 6q2 8 -8 8q-6 0 -6 -5q0 -9 8 -9zM1006 1520q0 -14 10 -15q10 0 10 15q0 14 -10 14t-10 -14zM1044 1505q6 -8 35 -35.5t60.5 -58.5t59.5 -54.5t32 -23.5q0 2 1 7.5t1 7.5q0 27 -19.5 55.5t-47 51t-58.5 36.5t-55 14h-9z" />
<glyph unicode="T" horiz-adv-x="1599" d="M186 1659q0 6 1 28.5t1 28.5q29 35 51.5 46.5t63.5 11.5q154 0 299.5 -15.5t292.5 -15.5q111 0 216.5 8t215.5 8h193q43 -16 52 -39.5t9 -58.5q0 -47 -13.5 -81t-47.5 -79q-47 -18 -105.5 -35.5t-109.5 -21.5q-27 -2 -54 -2q-34 0 -69 3q-12 1 -25 1q-49 0 -96 -16v114 q-12 4 -38 16.5t-40 12.5t-18 -9.5t-3 -19.5q0 -23 11.5 -44t15.5 -42q-1 -86 -1 -170t1 -164q2 -162 6 -320.5t7.5 -316t3.5 -321.5q0 -51 -32 -97t-91 -46q-25 0 -49.5 12t-44 31.5t-32 44t-12.5 51.5v12q0 8 3 10q2 8 7 31t11 47.5t10 47t6 32.5v1145q20 -2 21.5 15.5 t-2.5 33.5t-6 18q-20 0 -26.5 2.5t-12.5 2.5t-15.5 -3.5t-36.5 -11.5q0 -2 -1 -4t-1 -4q0 -18 8.5 -31.5t8.5 -36.5q0 -47 -4 -88t-11 -94q-14 16 -16 44t-6 54.5t-16.5 46t-47.5 19.5h-272q-27 29 -55.5 43t-51 30.5t-38 46t-15.5 89.5zM418 1544q2 -6 20 -6q19 0 23 6 q2 2 -5 4t-18 2q-8 0 -15 -2t-5 -4zM1219 1544l14 -14h129v14h-143z" />
<glyph unicode="U" horiz-adv-x="1611" d="M201 1679q0 53 41 73t88 20q14 0 45 -13.5t61.5 -32t54 -37t23.5 -28.5q-14 0 -33.5 -7t-21.5 -26l-15 -129v-872q0 -66 48.5 -128.5t117 -110.5t143 -77.5t128.5 -29.5q86 0 172 32.5t153.5 91t110.5 137.5t43 169v1003q0 16 13 29.5t30.5 23t36 14.5t28.5 5 q33 0 69 -21.5t52 -50.5v-80v-78q-6 -123 -6 -247q0 -184 -7 -371.5t-44 -368.5q-39 -29 -41 -60.5t-2 -64.5q0 -25 -14 -47q-27 -49 -66 -92t-84 -79t-95 -65.5t-100 -49.5q-8 2 -22 1t-28.5 -6.5t-25 -11.5t-10.5 -12v-2q4 0 14.5 -2t22 -5t21.5 -5t14 0q43 14 81 36.5 t73 47t70.5 48t76.5 40.5q0 -2 1 -7.5t1 -7.5q0 -23 -12 -33t-33 -24q-63 -45 -120.5 -76t-117 -49t-125 -25.5t-145.5 -7.5q-172 0 -306 66.5t-245 191.5q-2 2 -7 13.5t-7 15.5v6v8q27 -10 48.5 -31.5t49.5 -21.5q0 16 -5 25.5t-13 17.5t-18.5 16.5t-18.5 22.5 q-45 68 -87 148.5t-42 166.5v916q-8 33 -11 56.5t-3 51.5zM416 240q10 -18 18 -24.5t25 -6.5q2 0 7 1t7 1q-8 10 -22.5 19.5t-28.5 9.5h-6zM516 168q14 -18 38 -36.5t50.5 -32t54 -22.5t50.5 -9h8l28 14q-18 12 -45.5 27.5t-58.5 28t-60.5 21.5t-50.5 9h-14zM1260 1040 q0 10 11 32t17 26v358l14 43l15 -14v-215l14 -43v-6q0 -113 -4 -234t-25 -233q0 6 -2 22.5t-5 34.5t-5 34.5t-2 22.5v19v33v30v19q0 2 -4 13t-10 23.5t-10 22.5t-4 12z" />
<glyph unicode="V" horiz-adv-x="1601" d="M190 1645q0 27 12.5 44t31 26t40 13.5t41.5 4.5q29 0 54.5 -3.5t50.5 -27.5q4 -4 21.5 -52t37 -105.5t35.5 -109t21 -63.5q33 -111 68.5 -217t74.5 -213q16 -49 43 -98t43 -103q6 -18 18.5 -69t27.5 -105.5t34.5 -97.5t40.5 -43q2 0 4 1l2 1q20 12 32.5 36.5t18.5 51.5 t10 53.5t11 44.5q33 111 73.5 217.5t85.5 213t89 213t81 215.5q10 31 19.5 75.5t25 84.5t41 69t72.5 29t89 -25t42 -78q0 -31 -20.5 -89t-49 -121.5t-57.5 -124t-47 -93.5q-57 -117 -98 -240.5t-88 -246.5q-39 -98 -83 -195.5t-89 -189.5q-2 -4 -14.5 -21.5t-14.5 -21.5 q0 -4 -2 -23.5t-5 -41t-5 -41t-2 -23.5q-2 -10 -7.5 -34t-13.5 -48.5t-20.5 -43t-30.5 -18.5h-113q-6 0 -20.5 15.5t-28.5 34t-25.5 34t-11.5 17.5q0 76 -17.5 148.5t-44 143t-56 140t-54.5 141.5q-68 186 -132 371.5t-140 372.5q-8 18 -24.5 45.5t-34 56.5t-30 58.5 t-12.5 54.5zM205 1421v23q6 -2 25.5 -44t47 -111.5t62.5 -158t72 -182.5t71.5 -185t63 -167t48 -129t26.5 -68q4 -14 11 -35.5t14 -42t12 -35.5l6 -16l-15 -14l-28 29q-66 186 -145 360t-157 354q-4 6 -9 22.5t-5 20.5q-8 45 -24.5 91.5t-34 94.5t-29.5 96t-12 97z M1405 1085q0 11 6 21q5 8 19 8h6q6 -6 24.5 -19.5t32.5 -25.5q8 -6 23.5 -18.5t19.5 -22.5v-6v-8l-14 -15q-10 4 -29.5 12.5t-39 20.5t-34 25.5t-14.5 27.5z" />
<glyph unicode="W" horiz-adv-x="1755" d="M199 1634q0 37 22.5 61.5t50.5 47.5q8 0 33 1t31 1q63 0 92 -21.5t45 -81.5q-3 -56 -3 -105q0 -25 1 -47q2 -68 6 -135t11.5 -138.5t13.5 -161.5v-72q0 -27 2 -93.5t5 -142t5 -142t2 -93.5q2 -2 10.5 -3t10.5 -1q20 0 44.5 39t48 89t43 97t29.5 64q2 4 10.5 16t17.5 26.5 t17.5 27t12.5 16.5q2 4 14 15t14 13q20 31 35 73t34.5 81t48 65.5t75.5 26.5q31 0 52.5 -9t39.5 -36q12 -14 14.5 -23.5t2.5 -19.5t1 -23.5t11 -33.5q27 -55 63.5 -101.5t65.5 -99.5q41 -76 75.5 -159t82.5 -154q12 -4 22 -4q29 0 40 24.5t11 48.5q0 53 -15 107.5t-15 109.5 q0 92 5 194.5t46 190.5v488q0 16 15 32.5t35.5 29t42 19.5t34.5 7q57 0 91 -37t34 -94q0 -80 -24.5 -159t-35.5 -157v-24v-41v-41v-23q-2 -27 -6 -90t-8 -134t-8 -133t-6 -85q-4 -37 -13.5 -68.5t-19.5 -62.5t-18.5 -61.5t-8.5 -67.5q0 -80 16.5 -158t16.5 -157 q0 -23 -13.5 -47.5t-33 -45t-44 -35t-46.5 -14.5q-45 0 -77 9.5t-57.5 28t-46 45t-42.5 61.5q-12 18 -45 67t-70 103.5t-70 104t-45 69.5q-18 35 -32.5 46t-43.5 11q-20 0 -44.5 -24.5t-51.5 -62.5t-54.5 -85t-53 -90t-49 -77t-42.5 -48v72q12 20 45 70t70 107.5t70 109 t45 71.5l14 29q0 2 -2 4t-2 4q-14 0 -36.5 -21.5t-49.5 -55.5t-55.5 -76t-54 -83t-45 -75.5t-27.5 -55.5q-18 -45 -19.5 -89t-8.5 -78.5t-33.5 -56t-96.5 -21.5q-72 0 -123 44t-51 115q0 49 16.5 92t16.5 95q0 61 -11.5 115.5t-19.5 113.5v57q-2 37 -5 97.5t-6 128t-6 137 t-5.5 129t-4.5 100.5t-2 51q-2 39 -14 86.5t-25.5 92.5t-23.5 86t-10 71zM567 1018q20 0 27.5 -13.5t8.5 -32t-1 -35.5t0 -26q0 -2 13.5 -13t15.5 -15l1 -9q1 -8 1 -12q0 -16 -5 -28.5t-26 -22.5q-14 8 -21.5 27.5t-7.5 29.5q0 8 -1 30t-2 46.5t-2 45t-1 28.5zM909 676 q0 -8 9 -6q6 2 6 6t-6 8q-8 2 -9 -8zM932 727q33 -10 59.5 -23.5t38.5 -48.5q2 2 2 9v12q0 18 -3 43.5t-9 50.5t-17.5 44.5t-27.5 25.5q-25 -16 -34 -53t-9 -60zM1040 643q0 -31 27 -81t61.5 -102t68.5 -101.5t48 -75.5l14.5 -29t21.5 -43.5t21.5 -43t14.5 -28.5q0 4 1 21.5 t1 21.5q0 23 -17.5 65t-44 93t-59.5 105.5t-63.5 98.5t-56.5 71.5t-38 27.5zM1374 1184v8q0 23 8.5 46.5t8.5 47.5q0 27 -8.5 45.5t-8.5 46.5v15q0 16 3 33.5t20 17.5q23 0 30 -19.5t7 -38.5q0 -23 -6.5 -44t-10.5 -44l-14 -129l-14 -14z" />
<glyph unicode="X" horiz-adv-x="1654" d="M201 160q0 51 41 95t88 56q55 61 109.5 132t112.5 140.5t120.5 136t130.5 120.5q20 16 25.5 23t5.5 30q0 8 -19.5 25.5t-43 36t-44 35t-25.5 22.5q-6 8 -26.5 38.5t-45 64.5t-45 62.5t-26.5 34.5q-29 37 -60.5 83t-67.5 91.5t-76 83t-83 58.5v-8q0 -23 20.5 -51.5 t37.5 -41.5l37.5 -50t58.5 -75.5t68.5 -89t68.5 -89.5t58.5 -75.5t37.5 -50.5q14 -18 28.5 -42.5t14.5 -51.5v-6q-16 -18 -26 -31.5t-31 -13.5q-2 0 -28.5 39t-65.5 99.5t-85 133t-88 140t-75 120t-45 72.5q-2 2 -9 10.5t-14.5 18.5l-13.5 18t-6 10v25q0 41 4 81t10 81 q18 31 54 38t69 7t58.5 -8t48.5 -37l358 -488q16 -8 26.5 -35.5t22 -58.5t26.5 -54.5t40 -23.5q23 0 38 20.5t26.5 47.5t19.5 53.5t14 36.5q16 31 45 69t60.5 74.5t61.5 70.5t48 58q27 35 54.5 82t59.5 89t70.5 72t88.5 30q45 0 80.5 -32t35.5 -79q0 -4 -13 -34.5 t-29.5 -67.5t-34 -67.5t-25.5 -35.5v58q-94 -86 -166 -187.5t-149 -199.5q-25 -31 -39.5 -57.5t-29.5 -48t-34.5 -38t-54.5 -28.5q-23 -6 -27 -10.5t-4 -24.5t9.5 -32.5t23.5 -22t29.5 -18.5t25.5 -21q20 -23 56 -65t73 -85t65.5 -77.5t35.5 -43.5q29 -35 76.5 -86t95 -105 t82 -105.5t34.5 -84.5t-13 -55t-34.5 -37.5t-48.5 -22.5t-53 -7q-47 0 -70.5 10t-54.5 49q-2 -2 -6 -7t-8 -7h-7h-8q-4 2 -25.5 18t-31.5 25l-14 14q-16 20 -59.5 70.5t-91.5 107.5t-91 108.5t-60 71.5q-12 10 -20 12.5t-20 2.5q-14 0 -46 -27t-74 -68t-87 -91t-87 -96 t-75 -83t-47 -51l-15 29q-35 -41 -60.5 -64.5t-76.5 -23.5q-59 0 -104 35.5t-45 101.5zM492 139q0 -14 10 -14t10 14q0 15 -10 15t-10 -15zM526 178q23 0 54.5 33t67.5 83t75 108.5t75 108.5t66.5 83t50.5 33q10 0 42 -34t74 -84t89 -109.5t88 -111.5t71 -90t38 -44q0 2 1 7 t1 7q0 4 -1 9l-1 5q0 4 -5 21.5t-9 21.5q-43 61 -98.5 123t-106.5 126.5t-93 133t-61 146.5q0 2 -6 2t-8 -2q-2 0 -7 -5.5t-5 -7.5q-4 -6 -14.5 -26.5t-23 -45t-22.5 -45t-12 -26.5q-10 -12 -35 -41t-51.5 -61.5t-51 -60t-34.5 -38.5q-8 -33 -33 -56.5t-50.5 -46t-45 -50 t-19.5 -66.5zM1145 911q0 18 31.5 64.5t69.5 92.5t71 82t37 36l6 -2q-2 -4 -26.5 -52.5t-54.5 -103.5t-57.5 -100t-37.5 -45q-16 0 -27.5 5t-11.5 23z" />
<glyph unicode="Y" horiz-adv-x="1626" d="M201 1501v29h14l11 -10q10 -9 24 -23l28.5 -28.5t22.5 -24.5q106 -119 201.5 -242t199.5 -246l29 -57v-471l-14 -14q-23 6 -27 31.5t-4 50.5v30q0 35 8 69t8 69v8q0 10 -2 38.5t-5 60.5t-5 60.5t-2 38.5q-35 53 -77 111.5t-95 89.5q-4 2 -22.5 7t-20.5 7q-10 10 -19.5 30 t-18.5 41.5t-17 41t-17 31.5q-27 41 -49 74.5t-44.5 64.5t-48.5 62.5t-58 70.5zM201 1602v114q0 14 14 22.5t33.5 13.5t38 7t28.5 2q49 0 80 -25.5t64 -62.5q14 -18 41.5 -55t63.5 -83t74 -98.5t74 -98.5t63.5 -82.5t41.5 -55.5q2 -4 10.5 -20.5t19.5 -34t25.5 -31.5 t30.5 -14q14 0 53 49t92.5 123t116 159t123 158.5t113.5 122.5t88 49q43 0 80 -36.5t37 -79.5q0 -25 -7.5 -38.5t-17.5 -23.5t-23.5 -18.5t-25.5 -20.5q-104 -94 -184 -191.5t-174 -209.5q-20 -25 -28.5 -38t-8.5 -40q39 0 84 47t90 108.5t87 122t77 87.5v-15q0 -16 -26 -60 t-64.5 -99.5t-86 -117t-92.5 -111.5t-82 -83t-53 -33q0 25 7 43.5t7 42.5q-16 0 -32.5 -9t-31.5 -22.5t-24.5 -30.5t-9.5 -32q0 -63 1 -140t3 -154t5 -150.5t5 -130.5q0 -6 2.5 -23.5t5.5 -38t5 -40t2 -27.5q2 -4 8 -21.5t6 -21.5q0 -55 -44 -93t-99 -38q-27 0 -50.5 12 t-41 31.5t-27.5 44t-10 49.5q0 41 11 86t34 80q0 20 1 63t3 96.5t3 112.5t3 112.5t3 95.5t1 62v23v20q-80 82 -151.5 169l-143 174t-146.5 171t-161 160z" />
<glyph unicode="Z" horiz-adv-x="1640" d="M199 195q0 29 25.5 58.5t59 58t67.5 53t50 45.5q100 115 191.5 238.5t180.5 248.5t179 248t193 237l100 101q4 4 11.5 13t15.5 21.5t13 24.5t5 21q0 16 -14 19t-29 3h-14q-45 0 -60.5 -15.5t-22.5 -38t-17.5 -47t-45.5 -44.5h-20q-12 0 -28.5 -1t-30.5 -1h-21 q-72 0 -135.5 12t-134.5 18q-8 0 -44 2.5t-78 5.5t-78 5t-44 2q-41 4 -89 15t-89 33.5t-68.5 57.5t-27.5 86q0 47 25.5 74t62.5 49h135q143 0 285.5 -6l285 -12t284.5 -11q75 -2 150 -2l134 2q20 -4 31.5 -20t17.5 -36.5t7 -43t1 -37.5q0 -12 -21.5 -32.5t-49 -43t-53.5 -43 t-34 -30.5q-61 -78 -115.5 -164t-113.5 -166q-131 -180 -266.5 -354t-276.5 -346q-10 -12 -33.5 -29.5t-48 -39.5t-44 -43.5t-19.5 -39.5v-10q0 -8 2 -10l329 6h41l259 8l28 -14q2 -2 35 -2h47q55 0 104.5 8t102.5 8q57 0 92 -35t35 -88q0 -61 -37 -86t-86 -33t-96 -10 t-68 -20h-157q-20 0 -70.5 -2.5t-108 -5.5t-107.5 -5t-71 -2q-29 18 -85 21.5t-126 3.5q-68 0 -140.5 2t-132 16.5t-97 47.5t-37.5 96zM444 80q4 -12 11.5 -13t17.5 -1q12 0 21.5 2t21.5 12q-4 14 -15.5 15t-21.5 1t-20.5 -1t-14.5 -15zM473 1569q6 0 19.5 -2t30 -5 t30.5 -5.5t20 -2.5h21h22q6 0 27 2.5t43.5 5.5t44 5t29.5 2v14h-273zM717 377v47l11 18q11 17 27.5 40.5l33 47t28.5 37.5q86 113 178 221.5t179 221.5q33 41 51 73.5t63 69.5q0 -2 1 -7t1 -7q0 -12 -3 -21.5t-13 -21.5q-12 -16 -45 -58.5t-70 -90.5t-69.5 -91t-45.5 -61 q-2 -4 -12 -20.5t-22.5 -36t-23.5 -36t-13 -20.5q-14 -20 -41 -49t-52.5 -60.5t-45 -65.5t-19.5 -65q0 -14 7 -21t18.5 -10t25 -4t23.5 -1v-7q-55 0 -90 -11t-82 -11zM831 1569h15v14zM958 410q6 10 24.5 18t39 13t39 8.5t26.5 3.5q4 0 15.5 -7.5t13.5 -7.5q8 -4 28.5 -10 t44 -13t44 -12.5t27.5 -7.5l14 -14h-21q-12 0 -28.5 -1t-30.5 -1h-20q-10 0 -44 -1h-23q-23 0 -47 1q-36 2 -67 8.5t-35 22.5z" />
<glyph unicode="a" horiz-adv-x="1566" d="M141 162q0 63 24.5 123.5t57.5 119t67 116t52 116.5q76 227 157 435t187 423q2 4 8 18.5t13.5 32l13.5 31.5t8 18q2 8 9 30t16.5 43.5t21.5 38.5t25 17h98l29 -28q4 -78 27.5 -148.5t55 -138.5t67.5 -135.5t65 -136.5q55 -131 87 -261.5t56 -267.5q6 -33 27.5 -72.5 t50.5 -81.5t61.5 -87t59 -87t44 -82t17.5 -73q0 -59 -46 -83t-95 -24q-53 0 -85 20.5t-52.5 51.5t-32.5 65.5t-27.5 65.5t-36 51.5t-57.5 20.5h-485q-12 -10 -30.5 -22.5t-38 -25t-38 -20.5t-33.5 -8q0 37 8.5 59.5t18.5 39t18.5 28.5t8.5 27v8q-23 14 -37 21.5t-35 7.5 q-18 0 -24.5 -9.5t-6.5 -25.5q0 -18 8.5 -30.5t8.5 -29.5q0 -47 -21.5 -92t-21.5 -94v-21q2 14 9 24.5t23 10.5q0 -31 -16 -51t-42 -32.5t-55.5 -18.5t-56.5 -6q-53 0 -94 38t-41 91zM512 614q0 -2 1 -4l1 -2q2 -4 7 -9t7 -5h457q6 -2 18.5 -4t25.5 -4t25.5 -4t16.5 -2 q2 0 8 -1t8 -1q16 0 29.5 10t13.5 26q0 25 -19 56.5t-43 66.5t-46.5 72t-28.5 70v-58q-25 8 -35 32t-18 49.5t-23.5 45t-52.5 19.5q-41 0 -58.5 -38t-27.5 -82t-23.5 -82t-43.5 -38q0 10 -7.5 40t-3.5 40q0 4 8.5 21.5t18.5 37t19.5 36t11.5 20.5q8 18 22.5 65t29.5 96.5 t29.5 88t24.5 38.5q2 0 4 -1l2 -1q14 -4 15 -14v43h-29q12 4 14 11t2 18q0 25 -15 27.5t-36 2.5q-4 0 -17 -1t-18 -1q-4 -4 -9 -21.5t-5 -21.5t-2 -16t-5 -26.5t-5 -28t-2 -15.5q-12 -37 -34 -99t-46.5 -128t-49 -125t-42.5 -90l-16.5 -16.5t-25 -28.5t-22.5 -33.5 t-10 -30.5zM643 365h129v18q-33 0 -66.5 -3t-62.5 -15zM829 365h113q-4 4 -26.5 9t-30.5 5q-6 0 -28.5 -5t-27.5 -9zM954 969q0 -14 4.5 -24.5t12.5 -22.5q4 2 9 7t5 7q2 2 2 8q0 12 -11.5 18.5t-21.5 6.5zM1036 358q17 1 21 7q2 2 -5.5 4t-17.5 2q-8 0 -15 -2q-5 -2 -5 -3 q0 -7 22 -8zM1100 365h92q0 18 -7.5 30.5t-27.5 12.5q-23 0 -33 -10.5t-24 -32.5z" />
<glyph unicode="b" horiz-adv-x="1550" d="M154 240q0 248 15 491.5t15 491.5v53q0 39 -1 83t-1 81v55q-12 45 -14 78t-2 80q0 8 1 35.5t1 35.5q14 25 35.5 50.5t50.5 35.5h321q95 0 195 1h20q90 0 174 -8q94 -9 179.5 -34.5t149 -78t100.5 -137.5t37 -214v-77q0 -55 -22 -100.5t-81 -82.5q-6 4 -13 0t-14.5 -10 t-11.5 -12l-4 -6v-7q0 -4 38 -39.5t84 -90t85 -120t39 -128.5q0 -33 -9.5 -60.5t-9.5 -62.5q0 -29 8.5 -46.5t8.5 -39.5q0 -31 -26.5 -76t-61.5 -91t-71 -84t-56 -56h14q16 0 28.5 7t28.5 7h15q-29 -39 -77 -65.5t-104.5 -44t-112.5 -26t-101 -8.5h-50q-18 0 -84.5 2.5 t-143.5 5.5t-143.5 5t-84.5 2h-15h-22h-23h-12q-2 0 -10 4t-18.5 10t-18.5 10t-10 4q-45 12 -84 16.5t-69 19t-46 45t-16 96.5zM367 1143q0 -35 43 -35q88 0 163.5 3t151.5 6t156 5q40 1 83.5 1t90.5 -1q27 0 51 16.5t41.5 41t28 52.5t10.5 52q0 39 -12.5 77t-37 67.5 t-59.5 48t-80 18.5h-456q-4 -6 -20.5 -17.5t-22.5 -11.5q-25 0 -28 18.5t-5 41t-14.5 41t-55.5 18.5q0 -41 8.5 -83t8.5 -85q0 -70 -13.5 -128t-29.5 -124q0 -2 -1 -10t-1 -12zM383 350q0 -6 5 -17t9 -11h672q39 0 78 19t69.5 50t50 69t19.5 75q0 29 -14.5 72.5t-39 84.5 t-56 71t-64.5 30h-442q-10 4 -37 9t-35 5q-2 2 -8 2h-8h-9q-4 0 -4 -2q-4 0 -14 -4t-22.5 -9.5t-22.5 -9.5t-12 -6h-9q-23 0 -26.5 20.5t-6.5 44t-13.5 44t-45.5 20.5q-2 0 -7 -5t-7 -9v-6v-8q2 -6 7 -28t7 -30v-413q-4 -6 -9 -29t-5 -29zM455 709h14v-15zM492 1358q0 8 4 9 q1 0 2 -1q6 -4 6 -8t-6 -6h-2q-4 0 -4 6z" />
<glyph unicode="c" horiz-adv-x="1554" d="M129 694q0 4 2 16.5t5 26t5 25.5t2 16q0 27 2 96.5t5.5 147.5t5.5 147.5t2 96.5q18 117 83.5 215t160 167.5t208 108.5t228.5 39q98 0 183 -25.5t162 -70.5t144.5 -105.5t132.5 -128.5q31 -35 51.5 -75.5t20.5 -87.5q0 -33 -14.5 -52.5t-33 -35t-32.5 -32t-14 -40.5 q-49 0 -80 17.5t-51.5 44t-37 58t-38.5 60.5q-25 35 -67 63.5t-91 50t-99 33t-93 11.5q-123 0 -229.5 -56.5t-164.5 -173.5h-20q0 57 37 108.5t81 91.5t80.5 64.5t36.5 28.5v8q-66 -8 -114.5 -34.5t-85.5 -66.5t-61.5 -91t-39.5 -109q-2 -2 -8 -13t-6 -15q-4 -10 -9 -32 t-5 -26v-514q0 -4 6 -19.5t15 -36t19.5 -40.5t16.5 -33q27 -49 70 -87t95 -63.5t109.5 -39t110.5 -13.5h59q41 0 80 6.5t90 24.5q16 23 38 39.5t45.5 32.5t47 32.5t42.5 39.5q27 33 40 65.5t28 59t41 44t77 17.5q45 0 80 -29.5t35 -79.5q0 -16 -5.5 -26t-21.5 -10t-28.5 6 t-28.5 6q0 -23 7 -44.5t7 -45.5q0 -16 -1 -32.5t-15 -31.5q-78 -94 -185.5 -175t-230.5 -112q-4 -2 -23.5 -6t-41 -9t-40 -8t-24.5 -5l-29 -15h29q76 0 155.5 24t154.5 61.5t142.5 87t120.5 100.5h15q-18 -78 -90 -136.5t-162 -99.5t-183.5 -61.5t-156.5 -20.5 q-104 0 -199.5 21.5t-181.5 81.5q-6 4 -22.5 20.5t-20.5 22.5q-2 0 -1 7l1 7l-43 15q-10 4 -24.5 11t-28 14t-23.5 12l-10 6q-2 2 -4 10t-4.5 17t-4.5 18.5t-2 11.5q-4 4 -21.5 14t-21.5 15q-25 18 -49 68t-45.5 109.5t-35 114.5t-13.5 80zM707 63q0 -14 10 -14t10 14 q0 15 -10 15t-10 -15zM1034 1538q0 -14 10 -14t11 14q-1 14 -11 14t-10 -14z" />
<glyph unicode="d" horiz-adv-x="1609" d="M154 786q0 12 6 21.5t24 7.5q-8 29 -3 62.5t32 52.5v444q10 41 13 70t3 69q0 47 -16 86t-16 84q0 18 7 44t20.5 49.5t32.5 40t42 16.5h643q129 0 243.5 -61.5t201 -158.5t136.5 -219t50 -245v-47q0 -37 -2 -104.5t-5 -136t-5 -123t-2 -64.5q-4 -55 -25 -99.5t-21 -93.5 q0 -27 11.5 -40t26 -23t25.5 -22.5t11 -37.5v-14q-45 -23 -83 -56.5t-73.5 -69.5t-74.5 -67.5t-84 -50.5q-23 -10 -54.5 -18t-65.5 -15.5t-66.5 -16.5t-57.5 -21h-39q-27 0 -57.5 -1t-59.5 -1h-36q-38 1 -102 -3q-37 -2 -78 -3q-29 -1 -59 1q-73 2 -146.5 12.5t-133 35 t-97.5 68.5t-38 114q0 61 16.5 117.5t16.5 122.5q0 74 -2 133t-14 133q-45 -6 -45 28zM426 356q0 -16 9 -21t26 -5q67 0 153 -2q28 -1 58 -1q58 0 118 3q90 4 180.5 19.5t164 52t126 99t68.5 158.5q0 23 2 82.5t5 125t5 125t2 81.5v25q0 70 -31.5 142.5t-84.5 131t-124 95 t-147 36.5h-370q-2 0 -7.5 -5t-7.5 -9q-4 -6 -14 -28.5t-14 -28.5q-25 12 -26 42.5t0 62.5t-7 56.5t-47 24.5h-6q-4 -2 -8.5 -7t-6.5 -7v-7q0 -35 7.5 -64.5t7.5 -64.5q1 -268 -9 -526q-7 -182 -7 -368q0 -79 1 -158q-10 -18 -13 -31t-3 -29zM524 504q23 0 33 -17l-14 -14 q-19 8 -19 31zM526 678v24q0 4 1 14.5t1 14.5q18 -10 23.5 -18t5.5 -25q0 -10 -2 -17t-12 -12q-16 4 -17 19zM528 1130v15h15v-15h-15zM537 1274q0 14 5 15q1 0 1 -1q6 -4 6 -14q0 -12 -6 -14.5t-6 14.5zM1212 154h2q33 0 33 36q-35 0 -35 -36zM1292 195q4 0 8 6q2 6 -8 6 q-6 0 -6 -4q0 -8 6 -8zM1329 229q2 0 7 -1t7 -1q14 0 30 11.5t29 29t22.5 36t9.5 32.5q-4 0 -20.5 -13.5t-34 -31t-33 -35.5t-17.5 -27z" />
<glyph unicode="e" horiz-adv-x="1658" d="M188 225q0 51 7.5 88t23.5 99q2 18 3 58t3 91t3 107.5t2 107.5t2 91t1 59v323v322q-4 35 -16 68.5t-12 66.5q0 12 5 31.5t15.5 36t22.5 29t28 12.5h1274q16 0 31.5 -11.5t28 -28t19.5 -35t7 -32.5q0 -88 -45 -133t-112.5 -64.5t-145.5 -21.5t-141 -4q-31 0 -111 -1 t-168 -1t-167.5 1t-110.5 1q-59 -23 -60 -86q0 -4 1 -9l2 -6q0 -4 7 -21t7 -22q0 -6 -1 -26.5t-3 -44t-5 -44t-5 -28.5l-15 -14h-8q-16 0 -19.5 12t-3.5 23q0 20 8.5 36.5t8.5 34.5q0 31 -4 70t-11.5 80t-14.5 78.5t-13 66.5q-2 10 -12.5 13.5t-22.5 2t-22.5 -4.5t-12.5 -3 q0 -2 -2 -4t0 -4q0 -4 7.5 -15t7.5 -14q0 -2 1 -16t3 -32.5t5 -37t5 -28.5v-6v-9q0 -14 -2 -49t-5 -72.5t-5 -72.5t-2 -49q-16 -29 -23.5 -47.5t-7.5 -46.5q0 -16 7 -33t30 -17h8q4 2 21.5 8.5t21.5 6.5q10 4 32.5 9t24.5 5h529q20 0 40.5 -34t38 -77t27.5 -81.5t10 -51.5 q0 -18 -25.5 -34.5t-58 -29.5t-63.5 -24.5t-41 -17.5h-399q-2 0 -6.5 -8.5t-8.5 -12.5l-14 -28v-230q0 -14 -14 -14q-6 0 -22.5 5t-20.5 9q0 16 -2.5 57.5t-5.5 86.5t-5 86t-2 57q0 6 -2 20.5t-5 31t-5 29.5t-2 17q0 2 -5 7.5t-9 7.5q-4 4 -21.5 14t-21.5 14 q-14 -4 -15.5 -14t-1.5 -20q0 -16 2 -26.5t15 -25.5v-342q-12 -14 -14.5 -28.5t-2.5 -30.5v-23q0 -18 17 -18l1087 -29q20 0 34.5 -13t24 -31.5t12.5 -39t3 -34.5q0 -45 -31 -74t-74 -46.5t-90 -24.5t-80 -9q-18 -2 -52 -5t-67.5 -5t-61.5 -3t-34 -1q-25 0 -103.5 1 t-172.5 3t-181.5 4t-127.5 6q-43 2 -103.5 8t-114 25.5t-91.5 55.5t-38 97zM434 82h29l-14 14zM492 96q0 -2 5 -7t9 -7h6h8l29 14h-57zM635 96q2 -6 20 -6q19 0 23 6q2 2 -5 4t-18 2q-8 0 -15 -2t-5 -4zM836 96q4 -6 14 -6t14 6q2 6 -16 6q-13 0 -13 -4q0 -1 1 -2zM963 96 q2 -6 14 -6q10 0 14 6q2 2 -3 4t-11 2t-11 -2q-4 -1 -4 -3zM1020 96q2 -6 14 -6q11 0 15 6q2 2 -3.5 4t-11.5 2t-11 -2q-4 -1 -4 -3zM1114 90q17 0 21 6q2 2 -5.5 4t-17.5 2q-8 0 -15 -2q-5 -2 -5 -3q0 -7 22 -7zM1178 82h22q18 0 30.5 2t33.5 12q-4 0 -17.5 1t-17.5 1h-27 q-20 0 -24 -16zM1356 76q4 0 8 6q2 6 -8 6q-6 0 -6 -4q0 -8 6 -8z" />
<glyph unicode="f" horiz-adv-x="1646" d="M176 319h17q2 0 6 28t8 71t8 95t8 103.5t7 94.5t6 65v23q0 20 1 46.5t1 53.5v43q0 20 1 50t0 62.5t-5.5 65.5t-12.5 58v401q-4 4 -10 15.5t-13.5 25.5t-12.5 26.5t-7 18.5q0 2 -1 7t-1 9q0 2 1 7l1 6l101 57q65 -2 130 -2q107 0 213 6q169 10 343 10h258q6 0 31.5 -2 t55 -5t54.5 -5t31 -2q4 0 18 2t31.5 5t32 5t18.5 2h16h13q37 -14 57.5 -24t30.5 -23.5t12 -34t2 -53.5q0 -29 -3 -59.5t-15.5 -57t-36 -44t-62.5 -19.5l-901 -29q-16 0 -27.5 -15t-17.5 -34.5t-9 -38t-3 -26.5h-10v61q0 51 -13.5 105.5t-48.5 76.5q-4 4 -20.5 -4t-20.5 -8 q0 -41 13.5 -76t13.5 -76q0 -90 -22.5 -180t-22.5 -180q0 -12 1 -30.5t21 -18.5h9q82 8 157.5 12t150.5 6t153.5 4t166.5 7q51 -25 86 -72q2 -6 3 -27.5t1 -29.5q0 -80 -35.5 -120t-92 -56.5t-126.5 -16.5t-138 -2t-128.5 -13.5t-97.5 -47.5q-4 4 -10 15t-13.5 25.5 t-12.5 26.5t-7 19v6v8q0 4 7 20.5t7 20.5q0 12 -11 20.5t-27.5 12.5t-33 5t-24.5 1q0 -141 4 -283.5t21 -284.5q10 -20 19 -42.5t9 -45.5q0 -18 -14 -40.5t-34.5 -41t-45.5 -32t-43 -13.5h-6q-45 18 -71.5 34t-41 34t-19.5 39.5t-5 52.5q0 39 -6 98q0 2 -7.5 13.5t-7.5 15.5 q0 2 -1 7t-1 7zM766 762h143q-14 14 -27.5 15t-29.5 1q-25 0 -42 -3t-44 -13z" />
<glyph unicode="g" horiz-adv-x="1611" d="M213 778v51v218q0 53 4 108t12 111q31 45 43.5 99t42.5 101q45 70 111 128.5t143.5 99.5t161.5 64.5t166 23.5q33 0 92.5 -9.5t122 -26.5t119.5 -41t86 -52l215 -215q35 -35 47 -88.5t12 -98.5q0 -10 -1 -25.5t-1 -17.5q-4 -6 -15 -19t-24.5 -26.5t-27 -26t-19.5 -14.5 q-4 0 -14 -1t-14 -1q-41 0 -76 24.5t-71 61.5t-73.5 80t-84 80t-103.5 61.5t-129 24.5q-63 0 -112.5 -13.5t-90.5 -40t-80 -63.5t-82 -84q0 -4 -2 -15t-6 -23.5t-11 -22.5t-17 -10q-12 0 -17.5 9t-5.5 19q0 37 17.5 76t43 75t56.5 67.5t57 54.5v12q-27 0 -52.5 -17.5 t-49 -40t-41 -46t-29.5 -37.5q-72 -84 -72 -187v-514q0 -4 5.5 -25.5t9.5 -31.5q51 -156 172 -228.5t280 -72.5q74 0 132.5 22.5t107.5 60.5t93 87t87 102q6 8 18.5 36t10.5 36q-2 4 -13.5 10t-15.5 4l-86 -43v-6v-8q2 -4 8.5 -15.5t6.5 -13.5t1 -4t1 -4q0 -23 -16.5 -30 t-33.5 -7q-51 0 -99 14.5t-86 43t-60.5 70.5t-22.5 95q0 49 34 86t89 37q12 0 33.5 -5t44 -10t42 -10t30.5 -5q18 0 62 -2.5t95 -5.5t95 -5t63 -2q23 -8 27 -20.5t4 -28.5q0 -4 -1 -12t-1 -10q-25 -88 -42.5 -161t-43 -137.5t-68.5 -124t-119 -120.5l-13 -9 q-13 -10 -31.5 -22t-38 -23.5t-32 -17.5t-29 -10t-31.5 -9t-25.5 -13.5t-10.5 -22.5q55 0 104.5 19.5t94.5 49t87 64.5t83 66l29 14q0 -2 1 -4t1 -4q0 -20 -29 -51t-67 -60t-73.5 -52.5t-47.5 -29.5q-16 -8 -44 -20.5t-54.5 -23.5t-48 -19.5t-26.5 -8.5h-356q-4 0 -20.5 5.5 t-22.5 9.5q-6 2 -18.5 8t-25.5 13t-25.5 13.5t-16.5 8.5l29 14h-11q-85 0 -147 58l-2 6q0 2 1 5l1 3q2 2 6 7t8 7q-25 29 -48 35t-52 23q-4 2 -10 14t-15.5 27.5t-20.5 32t-26 26.5q-29 20 -39 58t-16 77t-13 69.5t-32 39.5v49q0 35 -1 74.5t-1 74.5z" />
<glyph unicode="h" horiz-adv-x="1644" d="M188 211q0 45 13.5 76.5t17.5 77.5q8 92 12.5 179t5.5 173q0 43 0.5 87t-0.5 88q-1 89 -1 187v56v86q0 49 -1.5 102t-1.5 100v86v58q-10 25 -12 41t-2 39q0 70 34 88t95 18q23 0 48.5 -2t47 -11t35 -27.5t13.5 -51.5v-8q-33 -129 -36 -262.5t-7 -268.5q-20 -23 -25.5 -41 t-5.5 -45q0 -29 12 -36t37 -7q98 0 196.5 8.5t198.5 8.5q123 0 241 -8.5t240 -8.5q23 0 44.5 6.5t21.5 36.5q0 29 -15.5 49.5t-15.5 51.5v458q-4 6 -9 28t-5 30q0 29 14.5 48t36 30.5t47 16.5t47.5 5q53 0 83 -21.5t30 -76.5q0 -96 -11.5 -190.5t-24.5 -187.5t-24.5 -187.5 t-11.5 -188.5v-8q0 -27 2 -98.5t5.5 -151.5t5.5 -151.5t2 -98.5q18 -25 29.5 -55.5t17.5 -64t9 -66.5t3 -62q0 -53 -28.5 -89t-88.5 -36q-23 0 -49 8.5t-51 24t-41 37t-16 45.5v244h14q2 0 7 27.5t7 44.5v12q0 35 -2 76t-26 69q-2 -4 -13.5 -9t-15.5 -5q-18 0 -30.5 11 t-24 24.5t-25.5 25t-35 11.5h-585q-31 0 -46.5 -46.5t-21.5 -105.5t-9 -115.5t-10 -76.5q-16 53 -20 110t-4 115q0 59 1 117v17q0 50 -5 97q-6 18 -14.5 24.5t-19.5 5.5t-22.5 -5t-23.5 -4q0 -4 -4 -10.5t-2 -10.5q0 -4 5 -11t11 -16.5t11.5 -17.5t7.5 -10v-416 q29 -47 35 -86t6 -90q0 -8 -2 -28.5t-2 -24.5l-15 -15l-14 15q-14 -4 -16.5 -18.5t2.5 -24.5l-58 -15h-14q-82 0 -135.5 57.5t-53.5 133.5zM1274 1118q0 18 5 29.5t11 21t11.5 17.5t5.5 22v330q0 10 8 30.5t20 26.5l15 -57v-301q0 -47 -14.5 -83t-61.5 -36zM1321 778 q8 -12 24.5 -33.5t18.5 -21.5h14v88q-10 0 -33.5 -4.5t-23.5 -20.5v-8z" />
<glyph unicode="i" horiz-adv-x="927" d="M190 188v29q0 27 7.5 50.5t35.5 23.5h187q18 0 23.5 16.5t5.5 32.5v18q0 35 -8.5 63t-8.5 60q0 35 3 59.5t14 63.5v973q0 2 -5.5 7t-9.5 7h-8q-12 0 -31.5 -10t-19.5 -25q0 -20 8 -35.5t8 -37.5v-31q0 -18 -22 -18q-16 0 -47 27.5t-60 64.5t-50.5 73.5t-21.5 55.5 q0 8 2.5 28.5t8.5 41t17 37t30 16.5h600q16 0 36.5 -22.5t20.5 -35.5v-157q0 -16 -21.5 -34t-48 -33t-53 -25.5t-34.5 -10.5q-25 0 -27 19.5t-4 44t-17.5 44t-66.5 19.5v-1155q-20 -23 -25.5 -46.5t-5.5 -51.5q0 -6 1 -18l1 -11l29 -14h186q20 0 34.5 -14.5t23 -34t11.5 -40 t3 -34.5q0 -43 -20.5 -63.5t-46 -32t-52.5 -20.5t-39 -34h-313q-2 0 -7 5.5t-7 9.5l-2 3q-1 3 -1 5t1 4l2 2q4 4 14 12.5t14 8.5h271q-12 18 -34 28t-45.5 15.5t-48 6.5t-42.5 1q-61 0 -120 -22.5t-118 -22.5q-4 0 -23.5 1t-25.5 1q-25 18 -41.5 50t-16.5 62z" />
<glyph unicode="j" horiz-adv-x="1572" d="M190 686q0 57 27 89t88 32q59 0 101 -59q-1 -18 -1 -36q0 -72 19 -138q25 -82 75 -141.5t126.5 -94.5t175.5 -35q70 0 133 23.5t115.5 64.5t92.5 96.5t64 118.5q2 12 5 45t5.5 69t3.5 68.5t1 45.5q0 33 1 98t1 151v181v178q0 86 -1 152.5t-1 99.5q0 4 4 16t10 24.5 t13 21.5t16 9h129l43 -43v-61v-96q0 -27 -2 -96.5t-5.5 -147.5t-5.5 -147.5t-2 -96.5q-18 -53 -24 -108.5t-6 -112.5q0 -55 2 -112q1 -28 1 -55t-1 -54q-8 -162 -100.5 -293t-243.5 -195q-47 -18 -94.5 -32.5t-90.5 -38.5q4 0 20.5 -1t20.5 -1q86 0 176 40t154 91 q2 2 16.5 13t30.5 25.5t31.5 28t21.5 19.5q4 2 15.5 14t13.5 14q2 0 9 2.5t9 2.5q0 -23 -18 -44.5t-29 -31.5q-221 -244 -544 -244q-84 0 -163 27.5t-150.5 74t-133 105.5t-111.5 123q-4 4 -14 26.5t-14 30.5l-1 5q-1 6 -1 10q0 18 9 25t9 30q0 55 -15.5 110.5t-15.5 114.5z M305 326q0 -20 10.5 -44t34.5 -24q0 23 -14 42t-31 34v-8zM401 221q0 -16 16.5 -31.5t39 -29t44 -21.5t34.5 -8q4 0 14 1t14 1q-10 14 -29.5 29.5t-43 29t-47.5 21.5t-42 8zM586 123q0 -16 12 -24.5t29 -8.5h8l14 14q-4 12 -20.5 15.5t-32.5 3.5h-10zM707 76h129 q-16 16 -37 16h-37h-29q-23 0 -26 -16zM1479 1450q-1 3 -1 6q0 13 14 24q17 13 30 13q18 0 24 -10t6 -27q0 -16 -8 -33.5t-31 -17.5l-6 2q-6 6 -16 22.5t-12 20.5z" />
<glyph unicode="k" horiz-adv-x="1630" d="M190 190q0 186 14.5 366.5t14.5 365.5q0 186 -14.5 364t-14.5 365q0 51 35 83.5t86 32.5q37 0 70 -11t53 -46v-72q0 -104 -3 -199.5t-11 -201.5q-4 -41 -17.5 -79t-13.5 -79q0 -20 4 -31.5t27 -11.5h14q2 2 13.5 9.5t25.5 16.5t27.5 18.5t19.5 13.5q205 152 402.5 308.5 t412.5 293.5q29 18 45.5 29.5t29.5 18.5t28.5 9t42.5 2q45 1 81 -33q32 -30 31 -74v-10q-4 -45 -23.5 -91t-47.5 -81l-29 -28q-10 -8 -38 -30t-60.5 -47.5t-61 -48t-41.5 -32.5q-23 -18 -65.5 -52t-88.5 -69t-88 -60.5t-63 -25.5q0 35 -1 48.5t20 29.5q16 12 44.5 34.5 t58.5 45t53.5 41t29.5 22.5q82 59 163 110.5t167 104.5l14 15h-14q-74 0 -149 -47t-148.5 -109.5t-144 -125t-132.5 -91.5q-10 -6 -27.5 -8t-34 -5t-27.5 -13.5t-11 -30.5v-9q0 -4 2 -6l24.5 -24.5l39 -39l39 -39t24.5 -26.5q104 -113 190 -238.5t183 -246.5 q25 -31 67.5 -75t85.5 -89t74 -86t31 -65q0 -33 -15.5 -57.5t-40 -41t-54.5 -25t-56 -8.5q-53 0 -78 19.5t-36 43t-16.5 44.5t-19.5 25q0 -4 -5 -14.5t-9 -14.5l-2 -1t-4 -1q-10 0 -38 28.5t-58.5 65.5t-55 73t-28.5 50q-12 12 -41 44t-61 67.5t-59.5 69.5t-37.5 48 q-6 6 -27.5 34t-45 59.5t-44 58t-26.5 33.5q-23 29 -29 37t-23 8h-24q-59 0 -91 -32t-47.5 -78t-17.5 -98q-1 -17 -1 -33q0 -32 3 -60l-14 -15l-14 15v284l14 29h-86v-72q0 -25 2 -90t5 -138t5 -138.5t2 -89.5q25 -27 28 -51.5t3 -57.5q0 -59 -38 -97t-101 -38 q-72 0 -104 47t-32 108zM621 907h14h14q4 0 27.5 7.5t30.5 7.5q2 0 7 -6.5t7 -8.5q2 0 9 -1t9 -1q0 10 -2 25.5t-7 30t-14.5 24.5t-23.5 10q-18 0 -26.5 -10t-14.5 -24.5t-12 -30t-18 -23.5zM829 768q0 -16 11.5 -26.5t23.5 -18.5q0 -2 6 -2t9 2q-6 16 -16.5 30.5 t-33.5 14.5zM883 680q0 -14 10 -14t10 14t-10 14t-10 -14zM909 651q0 -14 11 -14q10 0 10 14q0 15 -10 15t-11 -15zM934 629q0 -14 22.5 -50t56.5 -81t73.5 -95.5t75.5 -91.5t59.5 -67.5t27.5 -26.5v19q0 2 -11 21t-27.5 44t-33 50.5t-28.5 41.5q-16 20 -44 56t-54.5 71 t-48 60.5t-25.5 27.5l-43 29v-8zM1161 850q0 25 18.5 35t41.5 22q0 2 8 2q20 0 28.5 -17.5t8.5 -33.5q0 -20 -11.5 -35.5t-33.5 -15.5q-18 0 -39 10t-21 33z" />
<glyph unicode="l" horiz-adv-x="1650" d="M240 211q0 391 9 774q6 265 6 534q0 120 -1 240q16 25 46 41.5t60 16.5q37 0 70 -11.5t53 -46.5q0 -10 -1 -32.5t-1 -47.5t1 -47t1 -30q0 -4 7.5 -21.5t7.5 -21.5q0 -41 -14.5 -90.5t-14.5 -96.5q0 -37 -1 -113.5t-3 -175t-3 -205t-3 -205t-3 -175t-1 -113.5 q-4 -4 -8.5 -14.5t-6.5 -14.5v-8q0 -29 21.5 -33t38.5 -4q33 0 55.5 3t56.5 14h944q18 0 33 -12.5t24 -29t13 -35t4 -32.5q0 -25 -8 -48.5t-22.5 -42.5t-36 -31.5t-47.5 -12.5h-17q-8 2 -30.5 6t-47 8t-48 8.5t-32.5 6.5h-872q-10 0 -30.5 -7.5t-26.5 -21.5q27 0 84 1t129 1 h151h152q72 0 129 -1t84 -1q14 0 53 -1t82 -3t82 -5t55 -5q8 0 29.5 -5.5t27.5 -9.5l-14 -14l-129 -14h-39q-33 0 -76 -1t-86 -1h-67q-80 1 -167 -3q-68 -3 -137 -3h-40q-90 1 -178 8.5t-168 27.5l-17 11q-16 12 -35.5 26t-38 28.5t-24.5 20.5q-15 19 -15 30z" />
<glyph unicode="m" horiz-adv-x="1769" d="M213 203q0 315 22.5 630.5t22.5 630.5q0 49 -15.5 94.5t-15.5 94.5q0 53 32 83.5t85 30.5q37 0 60.5 -6t54.5 -39q14 -55 33.5 -109t66.5 -91q14 -20 51 -71.5t78 -108t78 -107.5t51 -72q2 -4 14.5 -24.5t27.5 -48t31.5 -55t27.5 -44.5q10 -18 13 -29.5t6 -17.5t8 -8 t20 -2q29 0 53 28.5t44.5 67.5t37 77t30.5 56q18 23 63.5 80t95.5 122t94 121t63 79q16 35 29.5 68.5t32 60t46 43t70.5 16.5q45 0 78 -23.5t33 -74.5q0 -35 -5.5 -70t-25.5 -63v-21q0 -12 -1 -26.5t-1 -28.5v-16v-68q0 -41 16 -70v-930q2 -10 6.5 -34.5t8.5 -51t8 -51 t6 -35.5v-14q0 -29 -14.5 -55.5t-37 -47t-51 -31.5t-55.5 -9q-68 6 -92 48t-24 97q0 135 16 268.5t16 270.5v53q0 33 -1 65.5t-1 57.5v27q0 6 -1 22t-4 36.5t-9 40t-14 30.5l-15 -15v-129q0 -33 -2 -113.5t-5 -172t-5 -172t-2 -113.5q-6 18 -10 65t-8.5 106.5t-9.5 123 t-13 117t-18.5 87t-26.5 33.5q-2 0 -7 -1t-7 -3q-8 -8 -29 -27.5t-43.5 -43t-43 -43t-28.5 -27.5q-23 -23 -45 -53.5t-47 -57t-54.5 -45t-66.5 -18.5q-70 0 -120 47t-93 104.5t-85 104.5t-97 47q-16 0 -23.5 -4t-11.5 -27q-18 -123 -18 -245v-25v-36q0 -117 -11 -237 l-14 101v643l-43 100q-4 -59 -7 -109t-5 -95.5t-3 -89.5t-1 -91v-137q0 -53 -1 -90v-36v-34q1 -32 5 -67t12 -80q0 -4 4 -23.5t10.5 -41t10.5 -41t4 -23.5v-23q0 -45 -34 -83t-81 -38q-35 0 -66.5 16.5t-55 43t-38 59.5t-14.5 66zM430 1178h14v28h-14v-28zM1145 750 q2 -2 8 -2t6 2q2 0 7 5t8 9l186 285h-14q-4 -6 -20.5 -29t-22.5 -29l-29 -28l-31.5 -42t-38 -51.5t-32 -44t-13.5 -20.5zM1382 1098q0 -6 4 -6h2q6 2 7 6q0 4 -6 8q-6 2 -7 -8zM1436 1192q0 -14 10 -14t10 14t-10 14t-10 -14z" />
<glyph unicode="n" horiz-adv-x="1638" d="M213 240q0 45 2 77.5t12 83.5v82q0 57 1 127t3 149t3.5 148.5t3.5 126t4 82.5q4 80 16 159t12 159q0 61 -15 119.5t-15 119.5q0 104 106 105h33q20 0 27.5 -6.5t35.5 -24.5l15 -14q63 -115 147 -227.5t174 -223.5t181.5 -219.5t168.5 -218.5l30 -42t40.5 -57.5t37.5 -54 t21 -31.5q12 -18 25.5 -48.5t31 -61.5t39 -53.5t48.5 -22.5q14 0 14 14v17q0 12 1 25.5t1 25.5v18q0 51 -15.5 94.5t-15.5 90.5v960q0 10 14.5 22.5t34 24t38 18.5t28.5 7q12 -2 28.5 -6t33 -10.5t32 -16.5t21.5 -24v-152q0 -258 -2 -512t-27 -510q-10 -2 -13 -10t-4 -17.5 t0 -18.5t1 -11q0 -39 7 -77t16.5 -76t16.5 -75.5t7 -76.5q0 -12 -6 -38t-16.5 -52.5t-23.5 -49t-28 -28.5q-6 0 -25.5 -1t-23.5 -1h-43q-20 0 -37 16l-186 186l-529 643l-100 101q-2 2 -8 2q-10 0 -15.5 -11.5t-9.5 -26.5t-9 -29.5t-15 -20.5l-15 14q0 10 -2 37t-5 56.5 t-5 56t-2 36.5q-2 10 -3 28t-4 35t-11.5 31.5t-24.5 20.5q-2 -23 -5 -77t-5 -115.5t-3 -116.5t-1 -78v-29q0 -25 -1 -56.5t-1 -61.5v-50v-43q0 -27 1 -52t1 -44v-20q0 -10 3 -40t7 -63.5t9 -65.5t9 -46q0 -4 4.5 -16.5t10.5 -27t10 -27.5t4 -15v-8q0 -23 -16.5 -45.5 t-39 -40t-49 -27.5t-47.5 -10q-37 0 -64.5 21.5t-46 54t-28.5 69.5t-10 68zM451 1280q0 -27 1 -48.5t5 -14.5q2 8 4 26.5t2 38.5t-2 39t-4 25q-1 2 -2 2q-2 0 -3 -16q-1 -22 -1 -52zM676 1030q0 -14 10 -14t10 14t-10 14t-10 -14zM743 958l15 -28v28h-15zM864 795 q0 -10 8 -9q6 2 7 9q-1 2 -7 6h-3q-5 0 -5 -6zM907 737q0 -8 8 -6q6 2 7 6q-1 2 -7 6h-3q-5 0 -5 -6zM942 688h14l-14 14v-14zM1057 545q27 -45 63.5 -88t73.5 -86t69.5 -89t51.5 -96q14 0 14 15q0 6 -5 28.5t-9 28.5q-12 14 -45 53t-70 82t-69.5 82t-45.5 55l-14 15h-6h-8z " />
<glyph unicode="o" horiz-adv-x="1556" d="M186 473h25q0 4 4 14.5t2 14.5t-13 21.5t-16 21.5v715q0 4 11.5 30.5t17.5 40.5q102 219 255 324.5t390 105.5q52 0 106 1h7q50 0 100 -15q70 -20 142.5 -68.5t136 -113t108.5 -140t58 -151.5q12 -78 13 -138.5t1 -136.5v-104q0 -35 -1 -66.5t-2 -66.5t-4 -74t-7 -86 q-4 -6 -10.5 -20.5t-13.5 -29.5t-12 -29.5t-7 -20.5q-18 -55 -41 -98.5t-52.5 -81t-66.5 -73.5t-84 -77q2 0 7 -1t7 -1q31 0 71 27.5t78 65.5t68.5 77t40.5 61q0 -2 1 -7t1 -7q0 -41 -32.5 -90t-78.5 -95t-95.5 -82t-81.5 -48q-18 -6 -44 -16.5t-50.5 -19.5t-43 -15.5 t-20.5 -6.5h-371q-61 0 -129.5 36t-133.5 88t-117 112.5t-79 107.5h15q16 0 21 -6t20 -6q0 29 -16.5 55.5t-39.5 42.5l-14 -28q-14 8 -22.5 24.5t-8.5 32.5zM293 330q0 -14 10 -15q10 0 10 15q0 14 -10 14t-10 -14zM313 319q0 -12 7.5 -28.5t19.5 -30.5t26.5 -23.5 t28.5 -9.5q2 0 4 1t4 1q-6 10 -15 25.5t-21.5 30t-26 24.5t-27.5 10zM403 659q0 -4 5.5 -19t9.5 -24q29 -72 70.5 -132t97 -104t122 -69.5t146.5 -25.5q74 0 139.5 22.5t121.5 61.5t104.5 92t85.5 112q0 12 2 45t5 69t5 68.5t2 45.5v41q0 8 1 25.5t-15 19.5l-29 -72l-14 29 q-2 104 -11.5 211.5t-46.5 194.5t-113.5 141.5t-213.5 54.5q-111 0 -205 -47t-140 -154q-20 -45 -25 -94t-32 -92l-14 14q-2 2 -2 23v30q0 92 38 173t107 147v14q-41 -16 -78 -51t-64.5 -79t-43 -92t-15.5 -93v-486zM451 172q0 -14 10 -14t10 14t-10 14t-10 -14zM479 158 q0 -14 10 -15q10 0 11 15q-1 14 -11 14t-10 -14zM719 57q2 -6 14 -6q11 0 15 6q2 2 -3.5 4t-11.5 2t-11 -2q-4 -1 -4 -3zM776 57q4 -6 15 -6q10 0 14 6q2 6 -17 6q-13 0 -13 -4q0 -1 1 -2zM903 57h86q0 2 -5 7.5t-9 7.5h-6h-8q-6 -2 -28 -7.5zM1104 100q6 2 21.5 5.5 t29.5 9.5t25.5 14t11.5 21q0 2 -1 4t-1 4q-23 -8 -46.5 -21.5t-39.5 -36.5zM1237 1317q0 -14 10 -14t10 14t-10 14t-10 -14zM1262 1217q2 -4 8 -29t6 -29q2 -12 6 -43t8 -64.5t8.5 -64.5t6.5 -43l14 14q0 2 1 19.5t1 28.5q0 63 -5 130.5t-40 123.5l-14 -29v-6v-8z" />
<glyph unicode="p" horiz-adv-x="1601" d="M188 207q0 10 1 34.5t1 28.5q23 221 34.5 428t11.5 430v84q0 59 -1.5 125t-1.5 125v82q-25 27 -27.5 52.5t-2.5 58.5q0 14 4 32.5t13 35t22.5 26.5t33.5 10h830q80 0 164 -34.5t152.5 -93t112.5 -135.5t44 -159q0 -27 -7 -51t-7 -49q0 -23 7 -44.5t7 -43.5 q0 -59 -23.5 -110.5t-59.5 -95.5t-79 -83t-82 -76h15q23 0 46 15.5t40 27.5q6 6 22.5 20.5t34.5 30t34.5 30t22.5 20.5h15v-29q0 -4 -19.5 -24.5t-47.5 -48t-57.5 -55.5t-47.5 -44q-49 -41 -111.5 -63.5t-128.5 -32.5t-133.5 -12.5t-128.5 -4.5q-16 0 -56 -1t-85 -1t-86 1 t-58 1q-47 -10 -86 -43q-16 8 -22 27.5t-6 36.5v8q0 4 7 27.5t7 29.5v7v8q-4 2 -12.5 8t-17.5 12t-17 12.5t-10 8.5q0 2 -9 2q-12 0 -17 -9.5t-5 -19.5q0 -18 7 -42.5t30 -29.5v-415q14 -23 18 -40.5t4 -39.5q0 -23 -15.5 -46.5t-37 -44t-47 -33.5t-43.5 -13q-4 0 -10 1 l-5 1q-70 35 -100.5 70.5t-30.5 109.5zM418 963q0 -16 4 -30.5t27 -19.5q4 0 21 7.5t22 7.5q8 2 22 6t27.5 7t23.5 6t13 3h571q2 0 18.5 8.5t24.5 12.5q86 47 130 109.5t44 164.5q0 27 -8 51.5t-23 46.5q-16 -10 -21 -28.5t-22 -28.5q-6 18 -20.5 44t-33.5 47.5t-41.5 37 t-47.5 15.5h-428q-29 8 -48.5 11t-45.5 3q-16 0 -28.5 -7t-24 -14.5t-22.5 -14.5t-26 -7h-6q-4 14 -5 34.5t-4 39t-13.5 32t-32.5 13.5q0 -117 -4 -231.5t-12 -231.5q-25 -10 -28 -40.5t-3 -53.5zM510 1343q0 15 10 15t10 -15q0 -14 -10 -14t-10 14zM514 1257h21v-43 q-14 4 -17.5 18.5t-3.5 24.5zM807 715q2 -8 14 -8q13 0 15 8q2 6 -17 6q-13 0 -13 -4q0 -1 1 -2zM891 715q8 -4 26.5 -6t38.5 -2t39 2t25 6q8 2 -14.5 4t-51.5 2q-27 0 -48 -2q-16 -2 -16 -3t1 -1zM1063 715q8 -8 37 -8q27 0 35 8q4 2 -8.5 4t-28.5 2q-14 0 -26 -2 q-10 -2 -10 -3t1 -1zM1210 1473q0 -14 11 -15q10 0 10 15q0 14 -10 14t-11 -14zM1276 1434q0 -23 16 -33l15 14q-11 19 -31 19z" />
<glyph unicode="q" horiz-adv-x="1644" d="M190 618v572q0 2 5.5 18.5t9.5 24.5q27 66 45 129t55 129q43 74 108.5 130t143.5 94t163 57.5t165 19.5q115 0 220 -37t192 -102.5t153 -158.5t100 -204q16 -55 17 -123v-120q0 -135 -1 -273.5t-44 -269.5q-6 -18 -24.5 -39t-39 -40t-36 -34.5t-15.5 -23.5 q0 -25 34 -42.5t73.5 -40t73.5 -55t34 -84.5q0 -68 -42 -92t-101 -24q-29 0 -54.5 9t-50 20.5t-50.5 20.5t-52 9h-8q-104 -27 -200.5 -49.5t-207.5 -22.5q-174 0 -317.5 85t-247.5 216q-18 23 -41 54.5t-23 66.5q14 0 19.5 -8t9.5 -17.5t9 -17.5t18 -8q2 0 4 1t4 1 q-6 23 -14.5 56.5t-20.5 67.5t-28.5 63.5t-37.5 41.5zM324 346q0 -14 10 -14t10 14t-10 14t-10 -14zM352 303q0 -14 10 -14t11 14q-1 14 -11 14t-10 -14zM367 289q0 -14 10 -15q10 0 10 15q0 14 -10 14t-10 -14zM381 274q0 -14 10 -14t10 14q0 15 -10 15t-10 -15zM420 1133 q0 -6 2 -34t5 -59.5t5 -59.5t2 -34v-47v-82v-82v-45q4 -92 47 -161.5t108.5 -116.5t147.5 -72t162 -25q27 0 61 -1h10q28 0 56 4q33 6 61.5 18t47.5 39q-4 2 -15.5 11t-24 21.5t-21.5 22.5t-11 16l-1 10q-1 11 -1 15q0 106 102 107q6 0 17 -2l12 -1l86 -86q23 14 39 36 t18 50q-1 32 -1 64q0 83 8 161q10 109 10 226q0 25 2 60q1 18 1 36t-1 37q-2 37 -12.5 69t-34.5 48v-137q-8 0 -19.5 24.5t-30 60.5t-47 77.5t-71.5 77.5t-102.5 60.5t-137.5 24.5q-90 0 -157.5 -25.5t-115.5 -73.5t-81 -117.5t-53 -157.5l-15 -15v29q0 51 8.5 95t22.5 85 t35.5 81t48.5 83q-78 -68 -123 -138.5t-49 -176.5zM463 846v8v6q0 6 2 20.5t5 31t5 29.5t2 20q14 -23 15.5 -49.5t1.5 -53.5q0 -8 -1 -23.5t-1 -17.5l-15 -14q-2 6 -7 22.5t-7 20.5zM489 711q0 35 24 38t58 3q0 -31 -21.5 -52.5t-43.5 -37.5q-12 12 -14.5 22.5t-2.5 26.5z M610 1462q0 -14 11 -14q10 0 10 14q0 15 -10 15t-11 -15zM1235 188l72 -28q2 2 2 10v10q0 16 -8.5 33.5t-28.5 17.5q-14 0 -23.5 -16.5t-13.5 -26.5zM1247 995q35 0 55.5 -4t20.5 -39q0 -34 -35 -34h-2h-8q-10 16 -20.5 35t-10.5 42zM1278 1305h18q0 18 -18 28v-28z" />
<glyph unicode="r" horiz-adv-x="1630" d="M186 260q0 16 4.5 30.5t14.5 22.5q23 154 27 293t4 287v201v84q0 59 -1.5 126.5t-1.5 127.5v84q-10 41 -12 66.5t-2 64.5q0 10 2 29.5t8.5 38t17.5 31.5t29 13h902q35 -23 71.5 -31t71.5 -26q76 -43 125 -98.5t78.5 -122t42 -141t12.5 -156.5q0 -115 -59.5 -205 t-141.5 -166h15q25 0 42 16.5t32.5 37t30.5 37t38 16.5v-50l-115 -114q-18 -16 -49 -37t-59 -21h-4q-2 0 -2 2q-14 4 -15 15q0 8 10.5 22.5t18.5 18.5h-143q-10 0 -12.5 -10.5t-2.5 -16.5v-14q117 -123 217.5 -251t212.5 -251q10 -29 12.5 -47.5t2.5 -46.5v-35 q-41 -16 -69 -37.5t-75 -21.5q-68 0 -96.5 20.5t-42.5 53t-23.5 73.5t-37.5 84q-8 12 -34 46t-55.5 72t-57 73.5t-40.5 52.5l-71 71v-8q0 -43 45 -99t99 -116.5t99 -120t45 -108.5l-2 -6q-66 55 -119 121.5t-103 135t-103.5 136t-116.5 123.5h-94q-55 0 -97.5 -1t-72 -14.5 t-49 -43t-31.5 -85.5q-10 41 -13.5 67t-3.5 62q0 27 8.5 48.5t8.5 44.5q0 35 -27.5 42t-54.5 7q0 -31 7 -50.5t18 -48.5q0 -18 -1.5 -63t-1.5 -96q0 -49 1.5 -93.5t1.5 -62.5q2 -41 15 -70.5t13 -64.5q0 -78 -28.5 -129t-114.5 -51q-39 0 -66.5 16t-45 43t-26 59.5 t-8.5 63.5q0 6 -1 20.5t-1 30.5zM418 963q0 -4 1 -19.5t15 -15.5h701q20 0 55 23.5t67.5 55t59 62.5t33.5 45q10 25 13 55.5t3 59.5q0 35 -3 57.5t-13 56.5q-2 2 -7.5 3.5t-7.5 1.5q-29 0 -29 -33q0 -7 1 -15q-25 18 -42.5 43t-37 47.5t-44 38t-63.5 15.5h-514 q-45 0 -62.5 -18.5t-37.5 -53.5q-6 10 -17.5 36t-11.5 36q0 4 6 21.5t9 21.5q0 2 1 14t1 19q0 27 -12.5 33t-41.5 6h-6q-4 -2 -9 -7.5t-5 -7.5q0 -4 6 -15t8 -13q4 -8 9.5 -24.5t5.5 -18.5v-388q0 -33 -15.5 -60t-15.5 -62zM850 700q14 -2 28.5 -14t25.5 -25.5t21.5 -23.5 t16.5 -10t6 2q4 2 9.5 7t5.5 7q0 12 -5.5 28.5t-13.5 33t-19.5 27.5t-23.5 11q-23 0 -33 -10t-18 -33zM1049 1057q2 0 7 1t7 1q10 0 17 -2t12 -15l-15 -14zM1264 1444l28 -29h8h7q-2 4 -13.5 14.5t-15.5 14.5l-2 1t-4 1t-4 -1t-4 -1z" />
<glyph unicode="s" horiz-adv-x="1509" d="M168 522q0 57 41 84t90 27q43 0 65.5 -14.5t37 -37t25.5 -51t30 -55.5q70 -102 166 -138t213 -36t208 41t170 133q18 18 24.5 36.5t6.5 41.5q0 25 -13 55.5t-34.5 58t-49.5 47t-54 19.5q-10 0 -21.5 -1t-15.5 -15q53 -16 77.5 -46t24.5 -83q0 -2 1 -10.5t0 -18.5 t-5 -18.5t-12 -8.5q-2 0 -7.5 5.5t-7.5 9.5q-2 2 -8 14t-13 27.5t-13.5 28t-8.5 16.5q-10 14 -35.5 21.5t-56 10.5t-60.5 5t-48 6q-12 2 -49 9t-79 16.5t-79 17.5t-49 12q-12 10 -35 17.5t-45.5 12.5t-41 8t-22.5 5q-31 12 -80 37t-95 58.5t-79.5 74.5t-33.5 88h28 q0 29 -5 52.5t-21 48.5v215q14 23 20 50t23 50q104 154 266 242t348 88q47 0 112.5 -18.5t135.5 -51.5t138.5 -77t122.5 -95t88 -108.5t34 -114.5q0 -18 -18.5 -51t-45 -65t-53.5 -55.5t-41 -23.5q-39 0 -68.5 24.5t-57 61.5t-58.5 79t-71 79t-94 61.5t-130 24.5 q-47 0 -96 -10.5t-94.5 -32t-83 -54t-62.5 -75.5q-2 0 -4 -1t-4 -1q-14 0 -18.5 17.5t-4.5 29.5t7.5 20.5t15.5 15.5t15 16t7 24v8q-47 -10 -75.5 -48t-28.5 -83q0 -84 61.5 -132t155.5 -77t208 -47.5t219.5 -46t188 -72.5t115.5 -125q0 -10 1 -38.5t3 -60.5t5 -60.5 t5 -39.5q2 -16 9.5 -29.5t15.5 -25.5t14.5 -24.5t6.5 -28.5q0 -53 -32 -101.5t-77 -90.5t-95 -75.5t-85 -54.5q-16 -10 -41 -17t-50.5 -16.5t-47 -21.5t-33.5 -31q4 0 18.5 -1t18.5 -1q31 0 73.5 18.5t85.5 44t83 53.5t65 44h18q0 -14 -12 -25.5t-21 -17.5 q-61 -51 -117.5 -83t-114.5 -48t-122.5 -22.5t-144.5 -6.5h-29q-20 0 -43.5 1t-44.5 1h-27q-25 10 -46 15.5t-41.5 8.5t-40 7t-44 12.5t-66.5 36t-85 63.5t-78 74.5t-43 69.5v12v23v22v15q-10 39 -27.5 69.5t-17.5 77.5zM256 1004q2 -4 13.5 -20.5t15.5 -22.5l14 -15l14 15 l-57 57v-6v-8zM299 260q4 -6 16.5 -20.5t28.5 -29.5t32.5 -26.5t29.5 -11.5q2 0 4 1t4 1q-6 8 -19.5 22.5t-30 29t-33 24.5t-26.5 10h-6zM561 1448q0 -14 10 -14t11 14q-1 14 -11 14t-10 -14zM571 831h58v21q-8 0 -31 -2t-27 -19zM686 817q12 -12 26.5 -13t30.5 -1h29 q-14 14 -27.5 15t-29.5 1h-15q-12 0 -14 -2zM907 754q2 0 6 6q2 8 -8 8q-6 0 -6 -5q0 -9 8 -9zM975 1520q0 -14 10 -15q10 0 10 15q0 14 -10 14t-10 -14zM1014 1505q6 -8 34.5 -35.5t60.5 -58.5t59.5 -54.5t31.5 -23.5q0 2 1 7.5t1 7.5q0 27 -19.5 55.5t-47 51t-58 36.5 t-55.5 14h-8z" />
<glyph unicode="t" horiz-adv-x="1576" d="M164 1659q0 6 1 28.5t1 28.5q29 35 51.5 46.5t63.5 11.5q154 0 299 -15.5t292 -15.5q111 0 216.5 8t216.5 8h192q43 -16 52.5 -39.5t9.5 -58.5q0 -47 -13.5 -81t-48.5 -79q-47 -18 -105.5 -35.5t-109.5 -21.5q-27 -2 -54 -2q-34 0 -68 3q-12 1 -25 1q-49 0 -97 -16v114 q-12 4 -37.5 16.5t-39.5 12.5t-18.5 -9.5t-4.5 -19.5q0 -23 12.5 -44t16.5 -42q-1 -86 -1 -170t1 -164q2 -162 6 -320.5t7 -316t3 -321.5q0 -51 -31.5 -97t-91.5 -46q-25 0 -49.5 12t-43.5 31.5t-31.5 44t-12.5 51.5v12q0 8 2 10q2 8 7 31t11.5 47.5t10.5 47t6 32.5v1145 q20 -2 21 15.5t-3 33.5t-6 18q-20 0 -26.5 2.5t-12.5 2.5t-15 -3.5t-36 -11.5q0 -2 -1 -4t-1 -4q0 -18 8 -31.5t8 -36.5q0 -47 -4 -88t-10 -94q-14 16 -16 44t-6.5 54.5t-16.5 46t-47 19.5h-272q-27 29 -55.5 43t-51 30.5t-38 46t-15.5 89.5zM395 1544q2 -6 21 -6q18 0 22 6 q2 2 -5 4t-17 2q-8 0 -15.5 -2t-5.5 -4zM1196 1544l14 -14h129v14h-143z" />
<glyph unicode="u" horiz-adv-x="1603" d="M193 1679q0 53 40.5 73t88.5 20q14 0 44.5 -13.5t61.5 -32t54.5 -37t23.5 -28.5q-14 0 -33.5 -7t-21.5 -26l-15 -129v-872q0 -66 48 -128.5t117 -110.5t143.5 -77.5t127.5 -29.5q86 0 172 32.5t154 91t111 137.5t43 169v1003q0 16 13 29.5t30.5 23t36 14.5t28.5 5 q33 0 69 -21.5t52 -50.5v-80v-78q-6 -123 -6 -247q0 -184 -7 -371.5t-44 -368.5q-39 -29 -41 -60.5t-2 -64.5q0 -25 -15 -47q-27 -49 -65.5 -92t-83.5 -79t-95.5 -65.5t-99.5 -49.5q-8 2 -22.5 1t-28.5 -6.5t-24.5 -11.5t-10.5 -12v-2q4 0 14.5 -2t21.5 -5t21.5 -5t14.5 0 q43 14 81 36.5t72.5 47t70.5 48t77 40.5q0 -2 1 -7.5t1 -7.5q0 -23 -12.5 -33t-32.5 -24q-63 -45 -120.5 -76t-117 -49t-125 -25.5t-145.5 -7.5q-172 0 -306 66.5t-245 191.5q-2 2 -7 13.5t-7 15.5v6v8q27 -10 48 -31.5t50 -21.5q0 16 -5 25.5t-13 17.5t-18.5 16.5 t-18.5 22.5q-45 68 -87 148.5t-42 166.5v916q-8 33 -11 56.5t-3 51.5zM408 240q10 -18 18 -24.5t25 -6.5q2 0 7 1t7 1q-8 10 -22.5 19.5t-28.5 9.5h-6zM508 168q14 -18 37.5 -36.5t50.5 -32t54.5 -22.5t49.5 -9h9l28 14q-18 12 -45.5 27.5t-58.5 28t-60.5 21.5t-50.5 9h-14z M1251 1040q0 10 11.5 32t17.5 26v358l14 43l15 -14v-215l14 -43v-6q0 -113 -4 -234t-25 -233q0 6 -2 22.5t-5 34.5t-5 34.5t-2 22.5v19v33v30v19q0 2 -4 13t-10 23.5t-10.5 22.5t-4.5 12z" />
<glyph unicode="v" horiz-adv-x="1613" d="M203 1651q0 27 12 44t30.5 26.5t40 13.5t42.5 4q29 0 54.5 -3t49.5 -28q4 -4 21.5 -52t37 -105.5t36 -108.5t20.5 -64q33 -111 68.5 -217t74.5 -213q16 -49 43 -98t43 -102q6 -18 18.5 -69.5t28 -106t35 -97.5t39.5 -43q2 0 4 1l2 1q20 12 32.5 37t19 51.5t10.5 53 t10 45.5q33 111 74 217t86 212.5t89 213t81 215.5q10 31 19 75.5t24.5 84.5t41 69t72.5 29t89 -24.5t42 -78.5q0 -31 -20.5 -89t-49 -121.5t-57 -124t-47.5 -93.5q-57 -117 -98 -240.5t-88 -246.5q-39 -98 -83 -195.5t-89 -189.5q-2 -4 -14.5 -21.5t-14.5 -21.5 q0 -4 -2 -23.5t-5 -41t-5 -41t-2 -23.5q-2 -10 -7 -34t-13.5 -48.5t-20.5 -43t-31 -18.5h-112q-6 0 -20.5 15.5t-29 34t-25.5 34t-11 17.5q0 76 -17.5 148.5t-44.5 143t-56.5 140.5t-54.5 141q-68 186 -132 371.5t-140 372.5q-8 18 -24.5 45.5t-34 56.5t-29.5 58.5t-12 54.5 zM217 1427v23q6 -2 25.5 -44t47 -111.5t62.5 -157.5t72 -182.5t71.5 -185.5t63.5 -167t48.5 -129t25.5 -67q4 -14 11 -36t14.5 -42.5t12.5 -35.5l5 -16l-14 -14l-29 29q-66 186 -144.5 360t-156.5 355q-4 6 -9.5 22t-5.5 21q-8 45 -24.5 91t-33.5 94t-29.5 96t-12.5 97z M1417 1092q1 12 7 21q5 7 18 7h6q6 -6 24.5 -19.5t32.5 -25.5q8 -6 23.5 -18.5t19.5 -22.5v-6v-8l-14 -14q-10 4 -29.5 12t-39 20.5t-34 26t-14.5 27.5z" />
<glyph unicode="w" horiz-adv-x="1720" d="M164 1638q0 37 22.5 61.5t51.5 47.5q8 0 32.5 1t30.5 1q63 0 92 -21.5t45 -80.5q-3 -56 -3 -105q0 -24 1 -47q2 -68 6 -135.5t11.5 -139t13.5 -161.5v-72q0 -27 2 -93.5t5 -142t5 -142t2 -93.5q2 -2 10.5 -3t10.5 -1q20 0 44.5 39t48 89t43 97t30.5 64q2 4 10 16 t17.5 26.5t17.5 27t12 16.5q2 4 14.5 15t14.5 13q20 31 34.5 73t34 81t48 65.5t75.5 26.5q31 0 52.5 -9t39.5 -36q12 -14 14.5 -23.5t2.5 -19.5t1 -23.5t11 -33.5q27 -55 63.5 -101.5t65.5 -99.5q41 -76 76 -159t82 -154q12 -4 22 -4q29 0 40 24.5t11 48.5q0 53 -15 107.5 t-15 109.5q0 92 5 194.5t46 191.5v487q0 16 15.5 32.5t36 29t42 19.5t33.5 7q57 0 91 -37t34 -94q0 -80 -24.5 -159t-35.5 -156v-25v-41v-41v-22q-2 -27 -6 -90.5t-8 -134t-8 -133t-6 -85.5q-4 -37 -13.5 -68.5t-19.5 -62.5t-18.5 -61.5t-8.5 -67.5q0 -80 16.5 -157.5 t16.5 -157.5q0 -23 -13 -47.5t-32.5 -45t-44.5 -35t-47 -14.5q-45 0 -77 9.5t-57.5 28t-46 45t-42.5 61.5q-12 18 -45 67t-70 103.5t-70 104t-45 69.5q-18 35 -32.5 46t-42.5 11q-20 0 -45 -24.5t-51.5 -62.5t-54.5 -85t-53.5 -90t-49 -77t-41.5 -48v72q12 20 44.5 70.5 t69.5 107.5t70 108.5t45 71.5l14 29q0 2 -2 4t-2 4q-14 0 -36.5 -21.5t-49 -55.5t-55.5 -76t-54.5 -83t-45 -75.5t-27.5 -55.5q-18 -45 -19.5 -89t-8.5 -78.5t-33.5 -56t-96.5 -21.5q-72 0 -123 44t-51 115q0 49 16.5 92.5t16.5 94.5q0 61 -11.5 115.5t-19.5 113.5v57 q-2 37 -5 97.5t-6 128t-6 137.5t-5 129t-4 100t-2 52q-2 39 -14.5 86t-26 92t-23.5 86t-10 71zM532 1022q20 0 27.5 -13.5t8.5 -32t-1 -35.5t0 -26q0 -2 13.5 -13t15.5 -15l1 -9q1 -8 1 -12q0 -16 -5 -28.5t-26 -22.5q-14 8 -21 27.5t-7 29.5q0 8 -1 30t-2 46.5t-2.5 45 t-1.5 28.5zM874 680q0 -8 9 -6q6 2 6 6t-6 8q-8 2 -9 -8zM897 731q33 -10 59.5 -23.5t38.5 -48.5q2 2 2 9v12q0 18 -3 44t-9 50.5t-17.5 44t-27.5 25.5q-25 -16 -34 -53t-9 -60zM1006 647q0 -31 26.5 -81t61 -102t68.5 -101.5t48 -75.5q4 -8 14.5 -28.5t21.5 -43t21.5 -43 t14.5 -29.5q0 4 1 21.5t1 21.5q0 23 -17.5 65t-44 93t-59.5 105.5t-63.5 98.5t-56 71.5t-37.5 27.5zM1339 1188v8q0 23 8.5 46.5t8.5 47.5q0 27 -8.5 45.5t-8.5 46.5v15q0 16 3.5 33.5t19.5 17.5q23 0 30 -19.5t7 -37.5q0 -23 -6.5 -44.5t-10.5 -43.5l-14 -129l-14 -15z" />
<glyph unicode="x" horiz-adv-x="1644" d="M190 154q0 51 41 95t88 56q55 61 109.5 132t113 140.5t121 136t130.5 120.5q20 16 25 23t5 30q0 8 -19.5 25.5t-43 36t-44 34.5t-24.5 23q-6 8 -26.5 38.5t-45 64.5t-45 62.5t-26.5 34.5q-29 37 -60.5 83t-67.5 91t-76 83t-83 59v-9q0 -23 20.5 -51t36.5 -41 q12 -16 38 -50t59 -76t68.5 -89t68.5 -89t58.5 -75.5t37.5 -50.5q14 -18 28.5 -42.5t14.5 -51.5v-6q-16 -18 -26.5 -31.5t-30.5 -13.5q-2 0 -28.5 39t-65.5 99t-85 133t-88 140.5t-75 120t-45 72.5q-2 2 -9.5 10t-14.5 18.5t-13 18.5t-6 10v25q0 41 4 81t10 81q18 31 54 38 t69 7t58.5 -8.5t48.5 -36.5l358 -488q16 -8 26.5 -35.5t21.5 -58.5t26.5 -54.5t40.5 -23.5q23 0 38 20.5t26 47t19.5 53.5t14.5 37q16 31 45 68.5t60.5 74.5t61.5 71t48 58q27 35 54.5 82t59 89t70.5 72t88 30q45 0 81 -32t36 -79q0 -4 -13.5 -34.5t-29.5 -67.5t-33.5 -68 t-25.5 -35v58q-94 -86 -166 -187.5t-150 -199.5q-25 -31 -39 -57.5t-29.5 -48t-35 -38t-53.5 -28.5q-23 -6 -27 -10.5t-4 -24.5t9 -32.5t23.5 -22t30 -18.5t25.5 -21q20 -23 56 -65t73 -85t65.5 -78t34.5 -43q29 -35 77 -86t95 -105.5t82 -105.5t35 -84t-13.5 -55.5 t-35 -37.5t-48 -22.5t-52.5 -7.5q-47 0 -71 10.5t-54 49.5q-2 -2 -6.5 -7.5t-8.5 -7.5h-6h-8q-4 2 -25.5 18.5t-31.5 24.5l-15 15q-16 20 -59 70.5t-91 107.5t-91 108.5t-60 71.5q-12 10 -20 12.5t-21 2.5q-14 0 -46 -27t-74 -68t-87 -91t-87 -96t-74.5 -83t-46.5 -51 l-15 28q-35 -41 -60.5 -64.5t-76.5 -23.5q-59 0 -104.5 36t-45.5 102zM481 133q0 -14 11 -14q10 0 10 14t-10 14t-11 -14zM516 172q23 0 54.5 33t67.5 83t75 108.5t74.5 108.5t66.5 83t51 33q10 0 42 -34t74 -84t89 -109.5t88 -112t70.5 -90t38.5 -44.5q0 2 1 7.5t1 7.5 q0 4 -1 9l-1 5q0 4 -5.5 21.5t-9.5 21.5q-43 61 -98 122.5t-106.5 126t-93.5 133.5t-60 147q0 2 -6 2t-8 -2q-2 0 -7.5 -5.5t-5.5 -7.5q-4 -6 -14 -26.5t-22.5 -45t-22.5 -45t-12 -26.5q-10 -12 -35 -41t-51.5 -61.5t-51 -60.5t-34.5 -38q-8 -33 -33 -56.5t-50.5 -46 t-45 -50t-19.5 -66.5zM1135 905q0 18 31.5 64.5t69.5 92.5t70.5 82t36.5 36l7 -2q-2 -4 -27 -52.5t-54.5 -103.5t-57 -100t-37.5 -45q-16 0 -27.5 5t-11.5 23z" />
<glyph unicode="y" horiz-adv-x="1615" d="M190 1501v29h15l10 -10q10 -9 24.5 -23t29 -28.5t22.5 -24.5q106 -119 201.5 -242t199.5 -246l29 -57v-471l-14 -14q-23 6 -27 31.5t-4 50.5v30q0 35 8 69t8 69v8q0 10 -2 38.5t-5 60.5t-5 60.5t-2 38.5q-35 53 -77 111.5t-95 89.5q-4 2 -22.5 7t-20.5 7q-10 10 -19.5 30 t-18.5 41.5t-17.5 41t-16.5 31.5q-27 41 -49.5 74.5t-45 64.5t-48 62.5t-58.5 70.5zM190 1602v114q0 14 14.5 22.5t34 13.5t38 7t28.5 2q49 0 80 -25.5t64 -62.5q14 -18 41.5 -55t63.5 -83t74 -98.5t73.5 -98.5t63.5 -82.5t42 -55.5q2 -4 10 -20.5t19.5 -34t26 -31.5 t30.5 -14q14 0 53 49t92.5 123t116 159t122.5 158.5t113.5 122.5t88.5 49q43 0 79.5 -36.5t36.5 -79.5q0 -25 -7 -38.5t-17 -23.5t-23.5 -18.5t-25.5 -20.5q-104 -94 -184.5 -191.5t-174.5 -209.5q-20 -25 -28.5 -38t-8.5 -40q39 0 84 47t90.5 108.5t87.5 122t76 87.5v-15 q0 -16 -25.5 -60t-64.5 -99.5t-86 -117t-92 -111.5t-82 -83t-53 -33q0 25 7 43.5t7 42.5q-16 0 -32.5 -9t-32 -22.5t-24.5 -30.5t-9 -32q0 -63 1 -140t3 -154t5 -150.5t5 -130.5q0 -6 2 -23.5t5 -38t5.5 -40t2.5 -27.5q2 -4 8 -21.5t6 -21.5q0 -55 -44 -93t-99 -38 q-27 0 -50.5 12t-41 31.5t-27.5 44t-10 49.5q0 41 11 86t34 80q0 20 1 63t3 96.5t3 112.5t3 112.5t3 95.5t1 62v23v20q-80 82 -151.5 169t-143.5 174t-146.5 171t-160.5 160z" />
<glyph unicode="z" horiz-adv-x="1652" d="M211 186q0 29 25.5 58.5t59.5 58.5t67.5 53.5t50.5 44.5q100 115 191 239t180 249t179.5 248t192.5 237l100 101q4 4 11.5 13t15.5 21.5t13.5 24.5t5.5 20q0 16 -14.5 19.5t-28.5 3.5h-15q-45 0 -60.5 -15.5t-22.5 -38t-17 -47t-45 -44.5h-21q-12 0 -28.5 -1t-30.5 -1 h-21q-72 0 -135 12t-135 18q-8 0 -44 2t-78 5t-77.5 5.5t-44.5 2.5q-41 4 -89 15t-89 33.5t-68.5 57.5t-27.5 86q0 47 25.5 73.5t62.5 49.5h135q143 0 285.5 -6t284.5 -12q144 -6 286 -11q71 -2 141.5 -2t141.5 2q20 -4 31.5 -20.5t17.5 -37t7 -43t1 -36.5 q0 -12 -21.5 -32.5t-49 -43t-53 -43t-33.5 -30.5q-61 -78 -115.5 -164t-114.5 -166q-131 -180 -266 -354.5t-277 -346.5q-10 -12 -33.5 -29.5t-48 -39t-44 -43t-19.5 -39.5v-10q0 -8 2 -11l330 7h41l258 8l28 -15q2 -2 35 -2h47q55 0 104.5 8.5t102.5 8.5q57 0 92 -35 t35 -88q0 -61 -37 -86t-86 -33t-96 -10t-68 -21h-157q-20 0 -70.5 -2t-108 -5t-107.5 -5t-71 -2q-29 18 -85 21.5t-126 3.5q-68 0 -140 2t-131.5 16t-97.5 47t-38 96zM457 72q4 -12 11 -13.5t17 -1.5q12 0 21.5 2t21.5 13q-4 14 -15 15t-21 1t-20.5 -1t-14.5 -15zM485 1561 q6 0 19.5 -2.5t30 -5.5t31 -5t20.5 -2h20h23q6 0 26.5 2t43 5t44 5.5t29.5 2.5v14h-272zM729 369v47l11 18q12 17 28 40.5t32.5 47t28.5 37.5q86 113 178.5 221.5t178.5 220.5q33 41 51 74t63 70q0 -2 1.5 -7t1.5 -8q0 -12 -3.5 -21t-13.5 -22q-12 -16 -45 -58t-69.5 -90 t-69.5 -91t-45 -62q-2 -4 -12.5 -20t-22.5 -35.5t-23.5 -36t-13.5 -20.5q-14 -20 -40.5 -49t-52.5 -61t-45.5 -65.5t-19.5 -64.5q0 -14 7.5 -21t18.5 -10.5t24.5 -4.5t23.5 -1v-6q-55 0 -90 -11t-82 -11zM844 1561h14v14zM971 401q6 10 24.5 18.5t39 13.5t39 8t26.5 3 q4 0 15 -7t13 -7q8 -4 29 -10t44.5 -13.5t44 -12.5t26.5 -7l14 -14h-20q-12 0 -28.5 -1t-31.5 -1h-20q-10 0 -44 -1h-23q-23 0 -47 1q-36 2 -66.5 8t-34.5 22z" />
<glyph unicode="&#xa2;" horiz-adv-x="1386" d="M174 748h16q8 -53 31 -108.5t55.5 -107t72.5 -95.5t85 -75q27 -20 56.5 -34.5t57 -29.5t54.5 -33.5t47 -45.5v-8q0 -12 -9 -17.5t-19 -5.5q-2 0 -7.5 1t-7.5 1q-80 23 -157.5 80.5t-138 135t-98.5 167t-38 175.5zM291 676v444q16 47 26.5 94.5t30.5 92.5q27 59 71 105 t98 81t113.5 59.5t119.5 40.5q14 2 14 19v24q0 16 -7 27.5t-15.5 22t-15.5 21.5t-7 28q0 41 29.5 70.5t70.5 29.5q35 0 67 -11.5t48 -43.5v-144q2 -29 28.5 -46t60.5 -28.5t69.5 -19.5t56.5 -20q37 -35 76 -68t69.5 -68.5t51 -77.5t20.5 -94q0 -8 -1 -32.5t-1 -32.5 q-29 -39 -81 -55.5t-99 -16.5q-12 0 -39 2t-27 19q0 2 1 5l1 3q4 4 14.5 9t14.5 5q-10 12 -14.5 30.5t-7.5 38t-4 37t-3 23.5q-10 45 -39.5 78t-68.5 53.5t-84 30.5t-88 10q-16 0 -52 -8t-74 -23.5t-67 -35t-29 -41.5v-4q0 -2 3 -2q31 12 52 23t41.5 18.5t44 12.5t60.5 5 q70 0 110 -12.5t65.5 -37t46 -63.5t51.5 -90h-15q-47 55 -97 93t-124 38q-8 0 -32.5 -1t-32.5 -1q-6 -29 -14.5 -37t-26.5 -8q-16 0 -33 8.5t-33 8.5q-23 0 -44.5 -16.5t-40.5 -39t-34.5 -47t-23.5 -41.5v58h-21q-2 0 -4 -9.5t-4 -24t-4 -28.5t-2 -24v-25q0 -23 -1 -52.5 t-1 -60.5v-49v-37q0 -27 1 -56.5t1 -55.5v-37q10 -59 45 -106.5t83 -81t104.5 -52t111.5 -18.5q92 0 164.5 37t120.5 123q14 25 18 48t11 40.5t24.5 29t58.5 11.5q59 0 89 -25t30 -84q0 -43 -10 -74.5t-27.5 -61.5t-41 -59.5t-52.5 -68.5q-18 -8 -28.5 -19.5t-18.5 -23.5 t-16.5 -23.5t-22.5 -19.5q-41 -25 -89 -46.5t-83 -54.5q-12 -12 -24.5 -41.5t-29 -60.5t-41 -52.5t-63.5 -17.5q-20 2 -42.5 10.5t-42 23t-32 32.5t-12.5 43q0 16 7.5 31.5t15.5 31t15 32t7 32.5v22q-131 8 -228 89t-159 198q-6 12 -16 30.5t-19.5 37t-15.5 31.5zM555 1212 q0 -8 8 -6q6 2 6 6q0 5 -6 9q-8 2 -8 -9zM963 242q25 0 49 16t37 33h-7h-8l-71 -15v-34z" />
<glyph unicode="&#xad;" d="M188 938q0 31 9.5 51.5t35.5 40.5q43 0 132.5 1t203 3t237.5 3t237.5 3t202.5 3t132 1h60q53 0 68.5 -16t15.5 -78q0 -16 -19.5 -40.5t-23.5 -45.5h-1073q-33 -27 -55.5 -32t-57.5 -5q-57 0 -81 26t-24 85zM334 772q0 14 14 14q6 2 19.5 4.5t30 4.5t30.5 4t21 2 q25 0 78 1t118.5 3t139 3t139 3t119 3t77.5 1h58q29 0 49 -1t40.5 -2t46 -4t64.5 -7q-25 -29 -59.5 -34t-69.5 -9q-4 0 -25.5 -1t-49 -3t-54 -5.5t-43.5 -5.5h-6h-8q-16 0 -65.5 1t-116 3.5t-140 3.5t-140 3t-116 3t-65.5 1q-23 0 -45.5 -1t-40.5 15z" />
<glyph unicode="&#x2000;" horiz-adv-x="921" />
<glyph unicode="&#x2001;" horiz-adv-x="1843" />
<glyph unicode="&#x2002;" horiz-adv-x="921" />
<glyph unicode="&#x2003;" horiz-adv-x="1843" />
<glyph unicode="&#x2004;" horiz-adv-x="614" />
<glyph unicode="&#x2005;" horiz-adv-x="460" />
<glyph unicode="&#x2006;" horiz-adv-x="307" />
<glyph unicode="&#x2007;" horiz-adv-x="307" />
<glyph unicode="&#x2008;" horiz-adv-x="230" />
<glyph unicode="&#x2009;" horiz-adv-x="368" />
<glyph unicode="&#x200a;" horiz-adv-x="102" />
<glyph unicode="&#x2010;" d="M188 938q0 31 9.5 51.5t35.5 40.5q43 0 132.5 1t203 3t237.5 3t237.5 3t202.5 3t132 1h60q53 0 68.5 -16t15.5 -78q0 -16 -19.5 -40.5t-23.5 -45.5h-1073q-33 -27 -55.5 -32t-57.5 -5q-57 0 -81 26t-24 85zM334 772q0 14 14 14q6 2 19.5 4.5t30 4.5t30.5 4t21 2 q25 0 78 1t118.5 3t139 3t139 3t119 3t77.5 1h58q29 0 49 -1t40.5 -2t46 -4t64.5 -7q-25 -29 -59.5 -34t-69.5 -9q-4 0 -25.5 -1t-49 -3t-54 -5.5t-43.5 -5.5h-6h-8q-16 0 -65.5 1t-116 3.5t-140 3.5t-140 3t-116 3t-65.5 1q-23 0 -45.5 -1t-40.5 15z" />
<glyph unicode="&#x2011;" d="M188 938q0 31 9.5 51.5t35.5 40.5q43 0 132.5 1t203 3t237.5 3t237.5 3t202.5 3t132 1h60q53 0 68.5 -16t15.5 -78q0 -16 -19.5 -40.5t-23.5 -45.5h-1073q-33 -27 -55.5 -32t-57.5 -5q-57 0 -81 26t-24 85zM334 772q0 14 14 14q6 2 19.5 4.5t30 4.5t30.5 4t21 2 q25 0 78 1t118.5 3t139 3t139 3t119 3t77.5 1h58q29 0 49 -1t40.5 -2t46 -4t64.5 -7q-25 -29 -59.5 -34t-69.5 -9q-4 0 -25.5 -1t-49 -3t-54 -5.5t-43.5 -5.5h-6h-8q-16 0 -65.5 1t-116 3.5t-140 3.5t-140 3t-116 3t-65.5 1q-23 0 -45.5 -1t-40.5 15z" />
<glyph unicode="&#x2012;" d="M188 938q0 31 9.5 51.5t35.5 40.5q43 0 132.5 1t203 3t237.5 3t237.5 3t202.5 3t132 1h60q53 0 68.5 -16t15.5 -78q0 -16 -19.5 -40.5t-23.5 -45.5h-1073q-33 -27 -55.5 -32t-57.5 -5q-57 0 -81 26t-24 85zM334 772q0 14 14 14q6 2 19.5 4.5t30 4.5t30.5 4t21 2 q25 0 78 1t118.5 3t139 3t139 3t119 3t77.5 1h58q29 0 49 -1t40.5 -2t46 -4t64.5 -7q-25 -29 -59.5 -34t-69.5 -9q-4 0 -25.5 -1t-49 -3t-54 -5.5t-43.5 -5.5h-6h-8q-16 0 -65.5 1t-116 3.5t-140 3.5t-140 3t-116 3t-65.5 1q-23 0 -45.5 -1t-40.5 15z" />
<glyph unicode="&#x2013;" horiz-adv-x="1234" d="M188 938q0 31 7.5 51.5t27.5 40.5q33 0 101.5 1t155.5 3t182.5 3t182.5 3t155 3t101 1h47q40 0 52 -16t12 -78q0 -16 -15 -40.5t-18 -45.5h-824q-25 -27 -42.5 -32t-43.5 -5q-44 0 -62.5 26t-18.5 85zM300 772q0 14 11 14q4 2 14.5 4.5t23 4.5t23.5 4t16 2q20 0 60.5 1 t90.5 3t106.5 3t107 3t91.5 3t59 1h45q22 0 37.5 -1l31 -2t35.5 -4t49 -7q-19 -29 -45.5 -34t-53.5 -9q-3 0 -19.5 -1t-37.5 -3t-41.5 -5.5t-33.5 -5.5h-4h-6q-13 0 -51 1t-89 3.5t-107.5 3.5t-107.5 3t-89 3t-50 1q-18 0 -35 -1t-31 15z" />
<glyph unicode="&#x2014;" horiz-adv-x="2258" d="M188 938q0 31 14.5 51.5t54.5 40.5q66 0 203.5 1t311.5 3t364.5 3t365 3t311 3t202.5 1h92q81 0 105 -16t24 -78q0 -16 -30 -40.5t-36 -45.5h-1647q-51 -27 -85.5 -32t-88.5 -5q-87 0 -124 26t-37 85zM412 772q0 14 22 14q9 2 29.5 4.5t46 4.5t47 4t32.5 2q38 0 119.5 1 t182 3t213.5 3t213.5 3t182.5 3t119 1h89q44 0 75 -1t62.5 -2t70.5 -4t99 -7q-38 -29 -91 -34t-107 -9q-6 0 -39 -1t-75.5 -3t-83 -5.5t-66.5 -5.5h-9h-13q-24 0 -100 1t-178 3.5t-215 3.5t-215 3t-178 3t-101 1q-35 0 -69.5 -1t-62.5 15z" />
<glyph unicode="&#x202f;" horiz-adv-x="368" />
<glyph unicode="&#x205f;" horiz-adv-x="460" />
<glyph unicode="&#x25fc;" horiz-adv-x="1740" d="M0 0v1741h1741v-1741h-1741z" />
</font>
</defs>
</svg>
